<svg xmlns="http://www.w3.org/2000/svg" id="Layer_1" viewBox="128.58 182.57 822.78 802.88"><defs><style>.cls-1{fill:#184898;stroke-width:0px;}</style></defs><path class="cls-1" d="M628.94,751.59c-4.15,2.3-8.37,4.52-12.74,6.55-27.08,12.58-55.53,18.53-83.55,18.53-12.65,0-25.2-1.31-37.5-3.68-17.05-3.28-33.57-8.79-49.17-16.34-10.09,24-16.65,49.88-15.92,77.16.25,9.41,1.23,18.95,3.41,28.67,4.7,22.32,15.11,44.05,32.03,65.93,8.55,10.42,18.78,20.72,30.8,30.67,11.99,9.39,25.81,18.19,41.44,26.37,2.23-1.14,4.33-2.32,6.48-3.48,13.04-7.06,24.83-14.55,35.19-22.52,12.11-9.84,22.43-20.05,31.07-30.39.96-1.22,1.83-2.44,2.75-3.67,15.46-20.5,25.23-40.95,29.85-61.98,9.36-40.15.73-77.87-14.14-111.8Z"/><path class="cls-1" d="M352.41,661.68c-7.96-17.14-13.21-34.83-16.03-52.6-16.41,4.21-32.44,9.78-47.64,17.81-12.24,6.48-24.08,14.75-34.78,24.72-5.06,4.72-9.95,9.7-14.37,15.27-7,8.71-13.37,18.57-18.93,29.66-5.14,10.9-9.41,23.04-12.58,36.42-6.05,26.56-6.8,57.78.57,92.15h0c32.22,15.36,62.8,21.68,90.33,21.68s50.81-6.02,70.51-15.51c14.07-6.71,26.19-15.28,36.88-25.02,15.94-14.52,28.56-31.73,38.78-50.03-39.43-19.3-72.81-51.64-92.75-94.56Z"/><path class="cls-1" d="M294.2,612.93c14.18,0,28.24-1.66,42.1-4.29-.13-.83-.28-1.65-.4-2.48-12.13-84.5,31.54-170.46,112.95-208.27,21.66-10.06,44.2-15.82,66.69-17.74,5.63-.48,11.25-.79,16.86-.79,35.67,0,70.56,9.76,101.02,27.69,33.5,19.73,61.62,49.37,79.23,87.29,15.34,33.03,20.78,68.1,17.62,101.92-3.79,40.61-20.03,79.39-46.64,110.63-14.95,17.54-33.15,32.69-54.26,44.46,17.02,32.93,40.91,63.34,77.96,81.42,10.03,4.95,21.19,8.99,33.29,11.79,12.01,2.78,24.95,4.34,38.65,4.34,17.01,0,35.19-2.41,54.21-7.85,11.3-3.23,22.9-7.53,34.73-13.05h0c7.67-34.3,7.19-65.53,1.38-92.14-3.05-13.41-7.22-25.59-12.26-36.53-5.46-11.14-11.75-21.06-18.67-29.83-13.6-17.48-30.85-30.72-48.8-40.42-16.97-9.16-35.01-15.27-53.48-19.78-1.14-.28-2.25-.61-3.39-.88h0c1.1.25,2.21.45,3.3.69,16.36,3.62,33.02,5.97,49.86,5.97,22.75,0,45.79-4.18,68.73-14.91,39.66-18.94,79.91-59.67,96.48-128.68h0c-22.01-27.6-46.84-46.75-71.28-58.79-12.4-5.96-24.49-10.29-36.23-13.14-12.1-2.65-23.75-3.89-34.91-3.92-.45,0-.9,0-1.35,0-21.63,0-42.28,5.24-60.63,13.04-18.82,8.03-35.78,19.07-51.61,31.59,0,0,0,0,0,0,31.8-25.12,58.87-56.25,69.71-100.41,4.74-21.32,6.05-46.63-.25-72.85-2.99-13.32-7.49-27.26-14.32-40.95-3.34-6.94-7.13-13.98-11.39-21.11-4.3-7.04-9.31-13.79-14.71-20.77-8.82.04-17.23.28-25.43,1.18-8.26,1.02-16.17,2.37-23.72,4.01-15.03,3.06-28.82,8.01-41.22,13.92-24.66,11.21-43.76,27.77-57.67,44.79-7.62,9.72-13.62,19.84-18.5,30.19-12.93,27.43-17.24,56.67-17.41,85.69.12-39.97-7.4-80.48-34.9-116.19-13.76-17.14-32.71-33.86-57.28-45.29-12.35-6.02-26.09-11.09-41.1-14.28-4.01-.91-8.14-1.72-12.35-2.46-3.71-.65-7.48-1.25-11.34-1.76-8.19-.97-16.59-1.29-25.42-1.41-5.45,6.93-10.52,13.64-14.89,20.64-4.32,7.08-8.17,14.1-11.58,21.01-6.94,13.63-11.57,27.53-14.67,40.82-6.54,26.17-5.45,51.49-.89,72.85,10.45,44.25,37.25,75.62,68.83,101.01h0c-15.73-12.66-32.58-23.85-51.33-32.04-18.61-8.1-39.63-13.57-61.69-13.57-.06,0-.12,0-.18,0-.28,0-.56,0-.83,0-10.91,0-22.29,1.15-34.11,3.62-11.76,2.74-23.89,6.98-36.34,12.82-19.02,9.16-38.31,22.67-56.39,41.01-5.24,5.32-10.4,10.99-15.4,17.15h0c15.97,69.15,55.86,110.23,95.36,129.51,23.39,11.19,46.95,15.52,70.23,15.52Z"/><path class="cls-1" d="M648.08,524.33c-17.24-37.1-51.33-63.28-90.61-71.21-8.17-1.65-16.55-2.57-25.07-2.57-18.53,0-36.54,4.01-53.55,11.91-63.71,29.6-91.47,105.51-61.87,169.23,20.82,44.82,66.23,73.78,115.68,73.78,18.53,0,36.54-4.01,53.55-11.91,28.83-13.4,50.21-36.32,62.33-63.26,14.66-32.59,15.75-71.08-.46-105.96Z"/></svg>