<?xml version="1.0" encoding="UTF-8"?><svg id="Layer_1" xmlns="http://www.w3.org/2000/svg" viewBox="0 0 1080 1080"><defs><style>.cls-1{fill:#000;}.cls-1,.cls-2,.cls-3,.cls-4,.cls-5,.cls-6{stroke-width:0px;}.cls-2{fill:#be1e2d;}.cls-3{fill:#184898;}.cls-4{fill:#fbb040;}.cls-5{fill:#710f12;}.cls-6{fill:#fff;}</style></defs><path class="cls-4" d="M361.94,265.5c1.4-.63,2.84-1.41,4.34-2.25,1.52-.81,3.07-1.74,4.62-2.83,3.1-2.18,6.2-4.96,9.08-8.56.93-1.14,3.96-4.68,6.71-10.35,1.38-2.83,2.7-6.17,3.66-9.99.24-.95.46-1.94.65-2.94.2-.99.37-2,.51-3.04.28-2.09.43-4.28.41-6.58-.05,0-.12,0-.18,0l7.85-2.95,3.93-1.47c1.31-.49,2.61-.99,3.95-1.4l15.98-5.11-.71-2.41c-14.78,4.58-29.45,9.6-43.62,15.82-2.28.79-4.74,1.82-7.25,3.14h-.03s0,.01,0,.01c-1.11.59-2.23,1.22-3.34,1.94-1.09.76-2.18,1.58-3.26,2.47-2.16,1.78-4.27,3.84-6.24,6.21-.49.59-1.52,1.85-2.73,3.69-.61.92-1.26,1.98-1.92,3.19-.63,1.24-1.26,2.62-1.85,4.12-2.36,6-3.98,13.89-2.26,22.84,1.45-.23,6.11-1.01,11.68-3.56Z"/><path class="cls-4" d="M429.26,277.57c-4.37,1.52-8.7,3.18-13.06,4.75.04-.03.08-.07.11-.1-5.64-7.25-12.22-11.02-17.86-13.08-5.63-2.04-10.27-2.4-11.65-2.41-4.36-.05-8.36.63-11.9,1.71-1.77.54-3.43,1.17-4.97,1.86-1.52.73-2.89,1.57-4.15,2.39-5.03,3.31-8.03,6.76-8.92,7.83,6.86,6.11,13.96,9.18,19.59,10.75,1.41.39,2.73.69,3.94.92,1.21.22,2.35.45,3.33.58,1.97.29,3.38.35,4.05.38,2.68.09,5.15-.09,7.43-.48,2.28-.39,4.37-1.01,6.35-1.59h0s.02,0,.02,0c2.22-.7,4.2-1.58,5.95-2.51l4.36-1.85,2.18-.93c.74-.29,1.48-.54,2.23-.82l8.9-3.26c1.49-.54,2.96-1.11,4.45-1.62l4.53-1.4,9.05-2.82-.7-2.41-13.26,4.13Z"/><path class="cls-4" d="M314.32,294.36c.96-.42,2.05-.93,3.21-1.54s2.47-1.24,3.79-2.03c2.65-1.56,5.49-3.58,8.24-6.2,1.39-1.3,2.7-2.82,4.06-4.38,1.36-1.56,2.67-3.28,3.9-5.2.79-1.23,3.27-5.24,5.22-11.28.48-1.53.96-3.12,1.39-4.82.42-1.7.77-3.52,1.02-5.45.49-3.85.57-8.11-.09-12.7-1.51.27-6.48,1.18-12.52,4.08-2.95,1.55-6.16,3.59-9.3,6.25-3.13,2.67-6.26,5.84-8.73,10.04-.8,1.31-3.36,5.64-5,11.78-1.71,6.06-2.14,14.3.74,22.98.69-.22,2.16-.69,4.09-1.53Z"/><path class="cls-4" d="M334.55,292.01c-3.34,1.59-6.18,3.5-8.51,5.4-1.16.96-2.22,1.86-3.09,2.82-.87.95-1.63,1.85-2.26,2.67-1.27,1.63-2.07,2.9-2.44,3.5,3.77,2.56,7.51,4.35,11.01,5.59,1.76.63,3.43,1.08,5.08,1.51,1.65.42,3.22.74,4.69.97,5.88.93,10.16.52,11.48.37,1.03-.12,2.02-.27,2.98-.46.96-.21,1.9-.41,2.81-.61,1.84-.42,3.54-.96,5.11-1.59,3.15-1.25,5.81-2.85,8-4.49,1.08-.85,2.14-1.56,3.03-2.32.9-.75,1.69-1.47,2.36-2.14,1.35-1.33,2.23-2.41,2.64-2.92-3.24-3.16-6.63-5.51-9.96-7.24-1.67-.87-3.31-1.58-4.92-2.16-.8-.29-1.59-.55-2.37-.78-.76-.21-1.51-.39-2.23-.54-5.81-1.23-10.39-.86-11.79-.73-2.2.21-4.28.59-6.25,1.1-1.96.52-3.72,1.29-5.4,2.07Z"/><path class="cls-4" d="M280.75,281.66c-2.72,3.1-5.28,6.79-7.32,11.13-.33.69-1,2.17-1.71,4.25-.69,2.1-1.33,4.91-1.73,8.08-.77,6.38-.35,14.42,3.58,22.62,1.35-.58,5.68-2.52,10.44-6.39,4.67-4.01,10.24-9.39,13.99-17.8.31-.66.92-2.11,1.62-4.14.74-1.98,1.55-4.57,2.17-7.64,1.24-6.13,1.71-14.26-.79-23.2-1.48.44-6.19,2.12-11.75,5.82-1.39.93-2.83,1.98-4.27,3.17-.72.6-1.45,1.23-2.17,1.89-.7.7-1.38,1.44-2.06,2.21Z"/><path class="cls-4" d="M333.98,331.93c4.05-3.69,6.25-7.38,6.92-8.53-7.21-5.38-14.61-7.4-20.62-7.95-3-.28-5.65-.2-7.72-.02-2.02.24-3.46.59-4.14.75-8.49,2.13-14.93,6.57-18.85,11.15-4.05,4.47-6.09,8.55-6.69,9.81,8.2,4.16,15.88,5.33,21.76,5.42,2.94.05,5.44-.19,7.37-.47,1.99-.22,3.38-.52,4.04-.66,4.1-.92,7.56-2.36,10.48-4.08,2.87-1.78,5.45-3.53,7.45-5.4Z"/><path class="cls-4" d="M261.9,337.67c.45-1.38,1.85-5.88,2.21-12.2.28-6.39-.08-14.29-3.72-22.82-.7.32-2.2,1.02-4.16,2.18-.98.58-2.08,1.27-3.26,2.09-1.17.83-2.35,1.84-3.59,2.96-2.47,2.25-5.07,5.03-7.45,8.39-.59.84-1.17,1.71-1.73,2.62-.56.91-1.11,1.85-1.57,2.88-.96,2.03-1.81,4.2-2.51,6.51-.44,1.47-1.84,6.3-1.87,12.63.06,6.43,1.67,14.44,6.68,22.06,1.24-.77,5.21-3.32,9.35-7.86,2.19-2.18,4.43-4.85,6.44-8.08,2.03-3.21,3.7-7.1,5.18-11.36Z"/><path class="cls-4" d="M301.26,361.05c.86-1.07,1.61-2.12,2.25-3.12.68-.96,1.27-1.85,1.76-2.66.97-1.62,1.56-2.89,1.83-3.49-7.9-4.44-15.68-5.65-21.58-5.28-5.96.29-10.32,1.81-11.65,2.3-4.24,1.46-7.53,3.76-10.4,6.11-2.84,2.38-5.12,4.95-6.9,7.37-3.34,5.03-4.76,9.41-5.17,10.75,8.66,3.01,16.32,3.07,22.14,2.37,5.96-.6,10.01-2.08,11.26-2.56,7.64-3.1,13.06-7.47,16.47-11.79Z"/><path class="cls-4" d="M469.86,230.68c-1.36.2-2.7.5-4.04.79l-4.03.86c-5.36,1.18-10.77,2.19-16.04,3.72-2.75-1.29-5.63-2.28-8.6-2.99-1.48-.36-2.99-.64-4.51-.86-1.52-.23-3.02-.26-4.55-.29-3.04-.03-6.11.21-9.16.7-3.04.5-6.07,1.19-8.93,2.37-2.88,1.12-5.67,2.48-8.31,4.05-2.64,1.58-5.16,3.29-7.38,5.45-4.48,4.21-8.18,9.14-10.65,14.68h0c5.87,1.9,11.84,2.73,17.63,2.52,2.88-.16,5.81-.33,8.66-.81,2.85-.47,5.65-1.18,8.36-2.14,1.36-.45,2.68-1.06,4.02-1.55,1.34-.52,2.65-1.11,3.94-1.75,2.58-1.28,5.06-2.79,7.41-4.52,1.18-.85,2.31-1.82,3.44-2.73,1.13-.91,2.23-1.88,3.29-2.9,2.12-2.04,4.09-4.31,5.87-6.78,5.25-1.52,10.63-2.53,15.97-3.7l4.01-.86c1.34-.29,2.67-.59,4.02-.79l8.09-1.33-.4-2.48-8.13,1.34Z"/><path class="cls-4" d="M170.05,547.54c-.38,3.33-.7,6.65-.99,9.98.27.24.54.46.8.71,2.09-1.99,4.48-3.62,7.05-4.8.82-.39,1.66-.73,2.51-1.04,2.98-28.91,9.43-57.48,19.26-84.91-.5.03-.99.06-1.49.06-2.86,0-5.72-.43-8.57-1.27-9.13,26.08-15.4,53.37-18.56,81.26Z"/><path class="cls-4" d="M208.87,274.62c1.18,2.89,2.86,5.91,5.21,8.9.46-.28,1.42-.89,2.62-1.84.6-.48,1.26-1.04,1.95-1.7.69-.65,1.39-1.42,2.17-2.22,3.04-3.26,6.06-8,7.16-14.77.17-1.09.83-4.49.43-9.33-.39-4.83-1.79-11.09-5.7-17.7-.03.02-.08.04-.11.06,1.27-1.54,2.69-2.96,4.06-4.42l4.13-4.35,4.14-4.35,2.07-2.17,2.16-2.08-1.48-1.5c-2.04,1.87-3.9,3.91-5.82,5.91l-5.71,6.02c-3.89,3.94-7.4,8.23-11.02,12.41-1.24,1.21-2.5,2.64-3.67,4.29v.02s-.01,0-.01,0c-.51.73-1.04,1.49-1.49,2.33-.45.85-.86,1.74-1.25,2.67-.77,1.87-1.39,3.93-1.8,6.17-.2,1.11-.81,4.76-.2,9.6.28,2.4.99,5.19,2.16,8.08Z"/><path class="cls-4" d="M247.62,270.05c-4.7.17-8.04,1.26-8.99,1.65-6.08,2.42-9.96,6.51-12.32,10.15-.61.9-1.04,1.84-1.42,2.69-.38.86-.68,1.66-.92,2.38-.48,1.43-.71,2.52-.81,3.03,3.58,1.25,6.9,1.93,9.9,2.24,3.01.32,5.63.22,8,.06,4.68-.37,7.78-1.46,8.73-1.81,1.9-.71,3.55-1.56,4.98-2.51,1.44-.94,2.64-2,3.78-3.01h0s.01-.01.01-.01c1.26-1.16,2.29-2.38,3.12-3.56,5.98-7.1,12.51-13.72,19.07-20.28l-1.47-1.51c-.61.59-1.27,1.14-1.85,1.76l-1.77,1.83-3.54,3.67-3.55,3.66-1.78,1.83c-.6.61-1.13,1.27-1.69,1.9.01-.04.02-.08.03-.11-6.69-3.4-12.8-4.21-17.52-4.05Z"/><path class="cls-4" d="M187.47,300.44c.5,1.32,1.1,2.68,1.83,4.07,1.46,2.76,3.42,5.6,6.06,8.35.43-.32,1.32-1.02,2.42-2.09.55-.54,1.15-1.16,1.78-1.89.31-.36.63-.75.94-1.16.33-.4.67-.82,1.01-1.26,2.71-3.55,5.24-8.57,5.67-15.42.21-2.13,1.17-13.96-7.88-26.41-.94.6-3.99,2.63-7.05,6.31-1.53,1.84-3.06,4.09-4.32,6.75-1.19,2.7-2.02,5.88-2.32,9.42-.09,1.13-.33,4.82.75,9.58.28,1.19.61,2.44,1.1,3.76Z"/><path class="cls-4" d="M242.5,306.06c1.98-3.49,2.58-6.64,2.75-7.62-13.95-5.49-24.69-.7-26.62.22-5.81,3.01-9.27,7.47-11.25,11.33-.51.96-.88,1.91-1.17,2.81-.29.89-.51,1.72-.68,2.46-.34,1.47-.46,2.58-.51,3.1,3.68.89,7.06,1.24,10.07,1.25,3.02.01,5.64-.32,7.98-.72,4.62-.83,7.6-2.22,8.5-2.67,2.84-1.39,5.03-3.08,6.76-4.86,1.83-1.72,3.17-3.55,4.17-5.3Z"/><path class="cls-4" d="M172.64,336.41c1.72,2.61,3.96,5.24,6.85,7.71.39-.36,1.22-1.15,2.21-2.32.5-.59,1.03-1.27,1.58-2.05.55-.78,1.09-1.66,1.7-2.6,2.34-3.8,4.37-9.05,4.13-15.92,0-2.14-.2-14.01-10.44-25.51-.88.69-3.71,3.01-6.4,6.98-1.34,1.98-2.65,4.37-3.63,7.15-.92,2.81-1.43,6.05-1.38,9.6.02,1.13.14,4.83,1.69,9.47.74,2.3,1.97,4.89,3.69,7.5Z"/><path class="cls-4" d="M201.26,327.7c-5.49,3.57-8.49,8.35-10.09,12.39-.42,1-.67,2-.88,2.92-.2.92-.34,1.77-.44,2.52-.19,1.5-.21,2.61-.21,3.13,3.75.53,7.15.54,10.15.25,3.01-.28,5.57-.89,7.87-1.51,4.52-1.29,7.34-2.97,8.2-3.5,2.69-1.67,4.71-3.56,6.25-5.51,1.65-1.89,2.81-3.85,3.63-5.69,1.63-3.67,1.92-6.86,1.99-7.86-14.43-4.09-24.65,1.74-26.47,2.86Z"/><path class="cls-4" d="M154.53,363.35c2.07,4.49,5.8,9.77,12.03,14.1.72-.8,2.97-3.44,4.74-7.51,1.97-4.02,3.48-9.44,2.57-16.24-.19-1.11-.52-4.55-2.33-9.07-1.79-4.51-4.95-10.09-10.62-15.28-.81.78-3.4,3.36-5.69,7.58-1.13,2.11-2.23,4.61-2.9,7.48-.59,2.91-.82,6.17-.41,9.7.13,1.12.61,4.79,2.6,9.25Z"/><path class="cls-4" d="M208.42,367.46c1.38-2.08,2.4-4.12,3.02-6.04,1.27-3.81,1.24-7.02,1.22-8.02-7.4-1.29-13.48-.27-17.95,1.28-4.45,1.55-7.35,3.56-8.11,4.23-5.12,4.1-7.65,9.15-8.85,13.34-1.01,4.26-.74,7.66-.64,8.69,7.59.3,13.51-1.31,17.78-3.07,4.38-1.73,7.03-3.68,7.83-4.3,2.52-1.93,4.35-4.01,5.69-6.11Z"/><path class="cls-4" d="M234.84,253.58c-1.38,4.3-1.93,8.88-1.4,13.58h0c19.17-1.39,32.25-15.43,33.59-33.97l4.31-4.08,4.5-3.87,9.01-7.74-1.34-1.63-9.04,7.76-4.52,3.88c-1.46,1.35-2.88,2.73-4.33,4.1-4.7-.06-9.24.88-13.41,2.63-4.09,1.83-7.67,4.58-10.7,7.84-1.5,1.64-2.88,3.4-4,5.32-1.09,1.96-1.99,4.03-2.68,6.17Z"/><path class="cls-4" d="M153.08,550.57h.06s.06.01.06.01c1.13.15,2.25.35,3.32.59,1.63.35,3.25.86,4.83,1.52-3.72-53.26.11-107.29,11.79-159.5.6-2.69-1.09-5.37-3.79-5.97-2.7-.6-5.37,1.09-5.97,3.79-11.7,52.27-15.84,105.75-12.38,159.4.65.03,1.36.08,2.08.17Z"/><path class="cls-4" d="M80.46,428.15c.08.98.2,1.99.37,3.02.34,2.05.87,4.17,1.65,6.32.19.53.62,1.67,1.35,3.13.37.73.8,1.55,1.33,2.42.56.87,1.21,1.79,1.95,2.73,2.97,3.76,7.43,7.75,13.81,9.98.4-1.01,1.63-4.3,2.08-8.83.12-1.13.15-2.35.18-3.63.05-1.28.03-2.62-.09-4.02-.24-2.8-.87-5.83-2.1-9.02-.38-1.02-1.53-4.29-4.13-8.17-1.3-1.94-2.95-4.04-5.04-6.08-.52-.51-1.07-1.02-1.65-1.52-.56-.5-1.14-.99-1.76-1.47-1.23-.96-2.59-1.88-4.07-2.72-.02.03-.04.08-.06.12l1.04-6.14.52-3.07c.17-1.02.34-2.05.58-3.06l2.69-12.16-1.81-.44c-2.58,11.19-4.84,22.48-6.14,33.91-.34,1.76-.6,3.72-.69,5.82v.02s0,0,0,0c-.04.93-.05,1.89,0,2.87Z"/><path class="cls-4" d="M113.08,431.43c-1.66,2.78-2.72,5.6-3.35,8.28-.32,1.34-.53,2.64-.66,3.89-.1,1.25-.07,2.44-.02,3.55.25,4.46,1.34,7.68,1.69,8.65,6.48-2.12,11.1-5.53,14.22-8.56.78-.76,1.46-1.5,2.06-2.19.59-.69,1.17-1.34,1.62-1.92.92-1.16,1.49-2.04,1.75-2.46,1.06-1.68,1.87-3.34,2.47-4.95.6-1.61.98-3.18,1.35-4.67h0s0-.02,0-.02c.38-1.69.56-3.29.61-4.75l.44-3.49.22-1.75c.09-.58.2-1.16.31-1.73l1.24-6.93c.21-1.15.39-2.31.62-3.46l.79-3.43,1.57-6.86-1.81-.45-2.31,10.06c-.66,3.37-1.21,6.77-1.83,10.15,0-.04-.02-.08-.02-.11-6.76.91-11.63,3.72-15.06,6.58-3.41,2.85-5.37,5.69-5.9,6.58Z"/><path class="cls-4" d="M82.47,475.74c.54,1,2.36,4.26,5.69,7.61,3.25,3.36,8.38,6.72,15.02,8.11.12-.52.36-1.64.55-3.19.09-.78.17-1.66.21-2.63s.13-2.05.11-3.19c0-2.29-.25-4.86-.9-7.6-.31-1.37-.8-2.79-1.29-4.24-.49-1.45-1.11-2.94-1.88-4.44-.49-.96-2.14-4.06-5.29-7.57-.8-.88-1.64-1.78-2.57-2.69-.94-.91-1.97-1.81-3.11-2.69-2.28-1.75-4.99-3.4-8.18-4.68-.39,1.07-1.66,4.6-2.06,9.56-.11,2.47,0,5.3.53,8.3.54,3,1.41,6.2,3.18,9.35Z"/><path class="cls-4" d="M110.72,484.92c.28.92.58,1.74.87,2.45.57,1.42,1.09,2.41,1.33,2.87,3.05-1.46,5.6-3.19,7.7-4.98,1.06-.89,1.98-1.8,2.87-2.7.89-.9,1.68-1.79,2.38-2.65,2.8-3.43,4.13-6.33,4.52-7.23.31-.7.58-1.4.82-2.09.23-.69.45-1.37.66-2.03.42-1.34.7-2.63.89-3.88.37-2.49.34-4.79.11-6.81-.14-1.01-.2-1.95-.36-2.81-.14-.86-.31-1.64-.49-2.32-.35-1.36-.71-2.33-.89-2.78-3.24.9-6.01,2.2-8.37,3.69-1.18.74-2.25,1.54-3.23,2.35-.49.41-.95.82-1.39,1.23-.42.41-.81.82-1.18,1.23-2.96,3.27-4.43,6.35-4.87,7.29-.69,1.49-1.22,2.97-1.63,4.42-.4,1.45-.56,2.87-.69,4.23-.23,2.74-.06,5.27.29,7.48.18,1.1.36,2.12.65,3.04Z"/><path class="cls-4" d="M101.49,499.58c-1-1.22-2.35-2.7-4.09-4.25-3.47-3.09-8.51-6.43-15.18-8.16-.27,1.11-.95,4.76-.66,9.72.08,1.24.21,2.55.44,3.93.11.69.25,1.39.4,2.1.19.71.41,1.42.65,2.15.97,2.9,2.39,5.93,4.4,8.86.32.47,1.02,1.45,2.09,2.69,1.09,1.23,2.65,2.69,4.54,4.13,3.81,2.88,9.12,5.61,15.85,6.15.13-1.08.5-4.58-.2-9.09-.83-4.49-2.2-10.08-6.19-15.63-.31-.44-1.01-1.38-2.05-2.58Z"/><path class="cls-4" d="M131.04,512.49c1.13-1.87,1.91-3.56,2.45-4.91.6-1.36.93-2.36,1.08-2.84.95-2.98,1.31-5.73,1.29-8.25-.07-2.5-.23-4.81-.68-6.8-.86-3.98-2.4-6.77-2.89-7.63-6.14,2.62-10.2,6.61-12.81,10.26-1.3,1.82-2.24,3.55-2.9,4.94-.6,1.39-.92,2.44-1.06,2.94-1.8,6.25-1.36,12.04.11,16.26,1.35,4.27,3.22,7.1,3.8,7.96,5.73-3.71,9.35-8.2,11.61-11.94Z"/><path class="cls-4" d="M121.63,561.75c-.03-1.09-.19-4.59-1.55-8.94-.58-2.22-1.46-4.65-2.78-7.15-1.3-2.5-3.17-5.03-5.36-7.57-.72-.81-3.08-3.38-7.01-5.98-4-2.57-9.2-5.29-16.03-6.13-.06.57-.17,1.79-.16,3.48,0,.85.04,1.81.12,2.87.09,1.06.31,2.19.56,3.41.52,2.43,1.34,5.13,2.6,7.91.32.69.66,1.39,1.04,2.09.37.7.77,1.4,1.26,2.08.94,1.37,2.02,2.73,3.24,4.04.78.83,3.36,3.53,7.41,5.92,4.15,2.36,9.89,4.32,16.66,3.95Z"/><path class="cls-4" d="M137.89,514.36c-5.8,3.41-9.48,7.95-11.45,11.88-2.04,3.94-2.69,7.3-2.88,8.33-.65,3.26-.4,6.24.04,8.96.47,2.71,1.26,5.13,2.15,7.18,1.98,4.02,4.26,6.57,4.97,7.33,5.16-4.43,8.06-9.33,9.79-13.33,1.84-4.05,2.41-7.2,2.56-8.18.86-6.06.08-11.17-1.42-14.97-.36-.95-.76-1.82-1.16-2.61-.36-.8-.71-1.51-1.05-2.12-.68-1.23-1.27-2.08-1.55-2.48Z"/><path class="cls-4" d="M107.05,430.61c3.41-3.06,6.17-6.58,8.2-10.37.97-1.9,1.96-3.85,2.72-5.86.76-2.01,1.35-4.07,1.75-6.16.22-1.04.32-2.11.51-3.16.16-1.05.28-2.12.35-3.18.14-2.13.1-4.29-.13-6.45-.11-1.08-.3-2.16-.47-3.23-.16-1.07-.37-2.13-.63-3.19-.52-2.12-1.24-4.23-2.16-6.3.99-3.94,2.35-7.77,3.59-11.63l.94-2.89c.32-.96.62-1.93,1-2.88l2.17-5.69-1.74-.67-2.18,5.71c-.38.95-.69,1.92-1,2.89l-.95,2.91c-1.24,3.88-2.62,7.73-3.61,11.69-1.85,1.28-3.57,2.76-5.13,4.4-.78.82-1.53,1.68-2.24,2.57-.72.89-1.29,1.84-1.89,2.81-1.16,1.94-2.15,4-2.97,6.14-.81,2.14-1.51,4.34-1.81,6.62-.36,2.27-.53,4.56-.51,6.84.03,2.28.18,4.54.74,6.78,1.03,4.45,2.81,8.66,5.44,12.32Z"/><path class="cls-4" d="M128.58,564.74c-2.67.71-4.26,3.45-3.55,6.12.58,2.17,1.17,4.33,1.77,6.49.43-.23.85-.46,1.29-.67l.04-.02.04-.02c1.88-.88,3.78-1.55,5.67-1.99l.09-.02.09-.02c.75-.16,1.49-.28,2.24-.37,0-.11,0-.22-.02-.33-.52-1.87-1.04-3.75-1.54-5.63-.71-2.67-3.45-4.25-6.12-3.55Z"/><path class="cls-4" d="M59.76,567.86c2.3.32,4.86.37,7.66-.02,0-.4-.04-1.24-.2-2.37-.08-.56-.2-1.2-.36-1.89-.16-.69-.39-1.42-.62-2.22-.96-3.17-2.87-6.88-6.81-10.11-.63-.52-2.57-2.21-5.83-3.76-3.25-1.55-7.78-2.99-13.49-2.96,0,.03,0,.06,0,.09-.52-1.4-.9-2.83-1.32-4.26l-1.25-4.28-1.25-4.28-.62-2.14-.52-2.16-1.52.39c.44,2.01,1.05,3.97,1.62,5.94l1.73,5.91c1.07,3.97,2.52,7.82,3.85,11.71.31,1.25.76,2.59,1.38,3.96v.02s0,0,0,0c.28.6.57,1.22.94,1.83.38.6.79,1.2,1.25,1.8.92,1.19,2,2.36,3.29,3.46.64.54,2.75,2.3,6.09,3.71,1.64.72,3.7,1.3,5.99,1.63Z"/><path class="cls-4" d="M72.11,561.29c.41.56.81,1.06,1.18,1.48.74.84,1.35,1.4,1.64,1.65,2.14-1.83,3.82-3.71,5.13-5.52,1.33-1.82,2.24-3.53,3.03-5.11,1.51-3.14,1.97-5.54,2.1-6.28.25-1.48.32-2.86.25-4.13-.07-1.28-.3-2.44-.52-3.55h0s0-.01,0-.01c-.28-1.24-.67-2.36-1.12-3.34-2.32-6.49-4.13-13.16-5.89-19.82l-1.52.38c.15.61.26,1.24.44,1.84l.52,1.82,1.03,3.64,1.03,3.65.51,1.82c.17.61.4,1.2.59,1.8-.02-.02-.04-.04-.06-.06-4.68,3.02-7.48,6.64-9.14,9.73-1.65,3.08-2.2,5.63-2.3,6.39-.72,4.81.45,8.82,1.91,11.7.35.73.79,1.35,1.2,1.92Z"/><path class="cls-4" d="M68.34,591.24c1.03.17,2.13.3,3.29.35,2.32.1,4.88-.1,7.62-.77-.05-.39-.16-1.23-.44-2.34-.14-.55-.32-1.18-.55-1.84-.12-.33-.25-.68-.39-1.04-.14-.36-.27-.74-.43-1.12-1.27-3.06-3.54-6.56-7.78-9.4-1.29-.93-8.52-5.97-19.89-4.81.03.83.2,3.54,1.41,6.88.61,1.67,1.48,3.49,2.72,5.29,1.29,1.78,3.02,3.49,5.18,5,.69.48,2.97,2.02,6.43,3.1.87.27,1.79.52,2.82.69Z"/><path class="cls-4" d="M81.91,582.03c.42.69.9,1.28,1.37,1.8.46.52.91.97,1.32,1.36.82.77,1.48,1.26,1.8,1.48,1.95-2.03,3.43-4.07,4.57-6,1.14-1.93,1.9-3.74,2.52-5.39,1.19-3.28,1.41-5.71,1.46-6.45.17-2.34-.1-4.38-.6-6.16-.42-1.82-1.09-3.36-1.84-4.65-1.5-2.58-3.29-4.14-3.86-4.61-8.74,6.9-9.68,15.58-9.8,17.17-.24,4.85,1.33,8.74,3.07,11.45Z"/><path class="cls-4" d="M85.89,614.19c2.32-.13,4.84-.58,7.51-1.51-.09-.39-.28-1.21-.66-2.28-.19-.54-.43-1.14-.73-1.78-.3-.64-.66-1.32-1.04-2.06-1.56-2.92-4.17-6.19-8.67-8.6-1.37-.8-9.07-5.1-20.27-2.83.12.82.54,3.51,2.09,6.71.77,1.6,1.82,3.33,3.23,5,1.46,1.64,3.35,3.18,5.65,4.47.73.41,3.15,1.72,6.71,2.45,1.75.38,3.88.56,6.19.43Z"/><path class="cls-4" d="M95.17,603.68c.49.64,1.03,1.18,1.55,1.65.51.47,1,.88,1.45,1.22.89.68,1.6,1.11,1.93,1.3,1.74-2.21,3.02-4.39,3.95-6.42.95-2.04,1.51-3.91,1.97-5.61.86-3.38.84-5.82.82-6.57-.06-2.35-.53-4.35-1.2-6.07-.6-1.77-1.42-3.24-2.3-4.45-1.74-2.42-3.69-3.79-4.3-4.21-8.01,7.73-8.09,16.47-8.06,18.06.24,4.86,2.18,8.57,4.18,11.11Z"/><path class="cls-4" d="M97.43,619.86c-.78-.29-3.12-1.37-6.69-1.9-3.56-.54-8.32-.6-13.77,1.11.2.81.89,3.44,2.74,6.48.93,1.52,2.12,3.15,3.72,4.65,1.64,1.46,3.65,2.83,6.07,3.89.77.34,3.3,1.4,6.91,1.78,3.65.35,8.44-.07,13.54-2.45-.25-.76-1.1-3.19-3.05-5.85-1.84-2.76-4.76-5.76-9.47-7.72Z"/><path class="cls-4" d="M120.81,615.4c.53-3.46.26-5.89.17-6.63-.3-2.33-.95-4.29-1.8-5.94-.82-1.66-1.75-3.08-2.75-4.19-1.97-2.24-4.04-3.42-4.69-3.78-3.59,4.27-5.21,8.55-5.88,12-.67,3.43-.46,6.04-.31,6.78.72,4.82,3.02,8.33,5.25,10.66,2.36,2.24,4.64,3.33,5.34,3.66,3.03-4.76,4.21-9.16,4.67-12.56Z"/><path class="cls-4" d="M51.08,534.75c.5,1.58,1.11,3.11,1.92,4.56.85,1.43,1.84,2.78,2.96,4.03,2.24,2.49,4.98,4.56,8.19,5.97,6.27-12.82,2.15-26.46-9.25-34.25l-1.01-4.29-.8-4.34-1.6-8.67-1.55.25,1.61,8.7.8,4.35c.32,1.44.68,2.87,1.01,4.31-1.8,2.99-2.89,6.26-3.32,9.59-.35,3.31.07,6.64,1.03,9.8Z"/><path class="cls-4" d="M379.64,347.88l4.37-.89,2.18-.44,2.2-.35-.27-1.54c-2.04.27-4.04.73-6.05,1.13l-6.03,1.24c-4.04.75-8,1.87-11.98,2.88-1.27.21-2.64.55-4.06,1.05h-.02s0,0,0,0c-.63.23-1.27.47-1.9.79-.63.33-1.26.69-1.9,1.1-1.26.82-2.52,1.8-3.72,3-.59.59-2.51,2.56-4.2,5.77-.85,1.58-1.6,3.58-2.11,5.84-.51,2.26-.77,4.81-.6,7.63.4.02,1.24.06,2.38-.01.57-.04,1.21-.1,1.91-.21.7-.1,1.45-.28,2.26-.43,3.24-.7,7.09-2.3,10.63-5.96.57-.59,2.42-2.38,4.23-5.5,1.81-3.11,3.62-7.51,4.05-13.2-.03,0-.06,0-.09-.01,1.43-.4,2.9-.66,4.35-.97l4.36-.9Z"/><path class="cls-4" d="M393.59,388.44l-1.86.37-3.71.73-3.72.73-1.86.36c-.62.12-1.23.3-1.84.44.02-.02.05-.04.06-.05-2.63-4.91-6.01-8-8.96-9.9-2.94-1.89-5.43-2.65-6.18-2.81-4.73-1.11-8.83-.26-11.81.96-.75.29-1.41.68-2.01,1.04-.6.36-1.12.72-1.57,1.06-.9.67-1.5,1.23-1.78,1.5,1.65,2.28,3.39,4.1,5.08,5.57,1.7,1.48,3.34,2.52,4.85,3.43,3.01,1.76,5.36,2.41,6.09,2.6,1.46.37,2.82.55,4.1.59,1.28.04,2.46-.1,3.58-.23h0s.01,0,.01,0c1.26-.17,2.4-.48,3.42-.85,6.66-1.79,13.45-3.05,20.23-4.26l-.26-1.55c-.62.1-1.25.16-1.87.29Z"/><path class="cls-4" d="M324.07,384.76c.56-.09,1.2-.22,1.88-.4.34-.09.7-.19,1.07-.3.37-.11.76-.21,1.15-.34,3.16-1.01,6.83-3,10-6.99,1.03-1.21,6.64-8,6.41-19.43-.83-.03-3.54-.09-6.97.85-1.71.47-3.6,1.19-5.5,2.28-1.87,1.14-3.72,2.73-5.41,4.76-.53.65-2.25,2.8-3.61,6.16-.34.85-.66,1.74-.92,2.76-.26,1.02-.47,2.1-.61,3.25-.29,2.3-.29,4.87.15,7.66.4-.02,1.24-.06,2.36-.25Z"/><path class="cls-4" d="M341.91,386.24c-4.82-.63-8.82.61-11.67,2.13-.72.37-1.35.79-1.9,1.22-.56.42-1.04.83-1.46,1.21-.83.75-1.37,1.37-1.62,1.67,1.86,2.11,3.77,3.75,5.61,5.04,1.83,1.29,3.57,2.2,5.17,2.95,3.17,1.46,5.57,1.87,6.31,1.98,2.32.36,4.37.26,6.18-.09,1.84-.27,3.44-.82,4.79-1.46,2.69-1.28,4.39-2.95,4.91-3.47-6.17-9.27-14.75-10.91-16.31-11.17Z"/><path class="cls-4" d="M306.7,371.83c-1.75,1.32-3.44,3.08-4.92,5.27-.47.7-1.97,3-2.99,6.48-.53,1.72-.88,3.82-.93,6.14-.06,2.32.19,4.87.9,7.61.39-.06,1.23-.18,2.33-.48.55-.15,1.17-.34,1.84-.58.67-.24,1.37-.55,2.14-.86,3.04-1.32,6.51-3.66,9.27-7.94.91-1.3,5.82-8.62,4.47-19.98-.83.05-3.54.26-6.86,1.53-1.66.64-3.47,1.54-5.25,2.81Z"/><path class="cls-4" d="M319,396.55c-4.86-.15-8.72,1.48-11.41,3.27-.68.43-1.26.93-1.77,1.41-.51.47-.96.93-1.34,1.35-.75.83-1.23,1.5-1.46,1.82,2.06,1.91,4.13,3.36,6.08,4.46,1.96,1.11,3.77,1.83,5.44,2.42,3.3,1.14,5.73,1.31,6.48,1.35,2.35.13,4.38-.17,6.15-.71,1.81-.45,3.35-1.15,4.62-1.93,2.55-1.54,4.08-3.37,4.55-3.94-7.05-8.61-15.76-9.4-17.34-9.5Z"/><path class="cls-4" d="M291.27,400.76c.35-.76,1.61-3,2.43-6.52.83-3.5,1.27-8.25.02-13.82-.82.13-3.5.61-6.68,2.2-1.59.8-3.31,1.86-4.94,3.33-1.59,1.52-3.12,3.41-4.37,5.73-.4.74-1.66,3.18-2.34,6.74-.64,3.61-.61,8.41,1.34,13.7.78-.19,3.27-.83,6.08-2.56,2.9-1.61,6.12-4.27,8.46-8.81Z"/><path class="cls-4" d="M296.81,409.35c-4.86.33-8.55,2.33-11.05,4.37-2.43,2.17-3.7,4.35-4.08,5.02,4.5,3.4,8.79,4.94,12.14,5.68,3.4.8,5.85.74,6.6.7,2.35-.11,4.35-.6,6.06-1.31,1.73-.68,3.21-1.49,4.4-2.4,2.39-1.79,3.74-3.75,4.14-4.37-3.96-3.93-8.1-5.89-11.48-6.84-3.37-.94-5.99-.95-6.74-.86Z"/><path class="cls-4" d="M407.78,364.24l-4.4.45c-1.46.2-2.92.44-4.38.66-2.84-2.03-6.01-3.39-9.29-4.09-3.27-.62-6.62-.47-9.85.23-1.61.37-3.19.85-4.7,1.54-1.49.73-2.92,1.61-4.25,2.62-2.66,2.03-4.95,4.59-6.62,7.68h0c12.27,7.29,26.2,4.29,34.89-6.43l4.36-.66,4.39-.44,8.77-.89-.12-1.56-8.8.89Z"/><path class="cls-4" d="M183.85,647.27l-.07.09c-.42.5-.86.98-1.32,1.47-1,1.05-2.09,2.07-3.27,3.03l-.08.07-.09.07c-.46.35-.94.7-1.44,1.04-.52.36-1.06.71-1.62,1.05-.77.48-1.58.93-2.42,1.37-.15.08-.29.16-.43.23l-3.69,1.89-1.35-.71c.31,1.19.62,2.38.94,3.56-.8-1.38-1.61-2.82-2.43-4.35l-.82-.43c-2.18-1.14-4.15-2.4-5.88-3.75l-.08-.07-.08-.07c-1.71-1.41-3.24-2.94-4.55-4.54l-.07-.09-.07-.09c-1.82-2.35-3.21-4.81-4.14-7.34-.86.28-1.74.49-2.64.68,5.3,12.81,9.55,20.91,13.83,27.92-.73-.44-1.47-.86-2.19-1.31-13.87-8.65-26.66-19.02-38.02-30.81-1.92-1.99-5.08-2.05-7.07-.13-1.99,1.92-2.05,5.08-.13,7.07,11.93,12.38,25.36,23.27,39.93,32.35,4.37,2.73,8.84,5.27,13.4,7.66,1.12-.36,2.25-.71,3.38-1.06,1.2-.37,2.39-.75,3.59-1.12,1.28-.39,2.58-.78,3.87-1.17.24-.07.47-.14.71-.21.67-.2,1.33-.4,2-.6.12-.04.24-.07.37-.11.92-.27,1.84-.54,2.76-.81.16-.05.32-.09.49-.14v-32.45c-.39.58-.81,1.15-1.25,1.71l-.07.09Z"/><path class="cls-4" d="M214.33,478.39l-.08-.07c-1.08-.89-2.08-1.84-3.01-2.81-4.52,7.02-8.66,14.29-12.39,21.81-9.57,19.31-15.2,37.85-18.61,54.78,1-.33,2.01-.6,3.02-.81,1.08-.23,2.2-.42,3.33-.56h.05s.05-.01.05-.01c1.38-.15,2.7-.18,3.7-.18h.33c3.31-15.2,8.56-31.57,17.08-48.78,3.44-6.94,7.25-13.65,11.4-20.15-1.75-.98-3.37-2.04-4.8-3.16l-.08-.07Z"/><path class="cls-4" d="M676.47,214.54l3.93,1.47,7.85,2.95c-.06,0-.12,0-.18,0-.03,2.3.12,4.5.41,6.58.14,1.04.31,2.06.51,3.04.19,1.01.41,1.99.65,2.94.96,3.81,2.28,7.16,3.66,9.99,2.75,5.67,5.78,9.21,6.71,10.35,2.89,3.59,5.98,6.38,9.08,8.56,1.55,1.09,3.1,2.03,4.62,2.83,1.5.84,2.94,1.62,4.34,2.25,5.57,2.55,10.23,3.34,11.68,3.56,1.72-8.95.1-16.84-2.26-22.84-.59-1.5-1.22-2.88-1.85-4.12-.65-1.21-1.31-2.26-1.92-3.19-1.22-1.84-2.24-3.1-2.73-3.69-1.97-2.37-4.08-4.42-6.24-6.21-1.08-.89-2.17-1.71-3.26-2.47-1.11-.72-2.23-1.35-3.34-1.94h0s-.03-.01-.03-.01c-2.51-1.32-4.96-2.35-7.25-3.14-14.18-6.23-28.85-11.25-43.62-15.82l-.71,2.41,15.98,5.11c1.34.4,2.64.91,3.95,1.4Z"/><path class="cls-4" d="M665.94,285.77l2.18.93,4.36,1.85c1.74.93,3.73,1.81,5.95,2.51h.02s0,0,0,0c1.98.58,4.06,1.2,6.35,1.59,2.28.39,4.76.58,7.43.48.67-.02,2.08-.09,4.05-.38.98-.13,2.12-.37,3.33-.58,1.21-.23,2.53-.52,3.94-.92,5.64-1.58,12.74-4.65,19.59-10.75-.89-1.07-3.89-4.52-8.92-7.83-1.26-.82-2.63-1.66-4.15-2.39-1.54-.69-3.2-1.32-4.97-1.86-3.55-1.07-7.55-1.76-11.9-1.71-1.38.01-6.02.37-11.65,2.41-5.64,2.06-12.22,5.83-17.86,13.08.03.03.07.07.11.1-4.36-1.57-8.69-3.22-13.06-4.75l-13.26-4.13-.7,2.41,9.05,2.82,4.53,1.4c1.49.51,2.97,1.08,4.45,1.62l8.9,3.26c.74.27,1.49.53,2.23.82Z"/><path class="cls-4" d="M735.88,258.9c.42,1.7.91,3.28,1.39,4.82,1.95,6.04,4.44,10.06,5.22,11.28,1.23,1.92,2.54,3.65,3.9,5.2,1.35,1.56,2.67,3.08,4.06,4.38,2.75,2.63,5.58,4.65,8.24,6.2,1.32.79,2.63,1.42,3.79,2.03s2.24,1.13,3.21,1.54c1.93.84,3.4,1.31,4.09,1.53,2.87-8.68,2.45-16.92.74-22.98-1.64-6.14-4.2-10.47-5-11.78-2.47-4.2-5.6-7.37-8.73-10.04-3.14-2.65-6.35-4.69-9.3-6.25-6.03-2.9-11.01-3.81-12.52-4.08-.66,4.58-.58,8.85-.09,12.7.25,1.92.6,3.74,1.02,5.45Z"/><path class="cls-4" d="M722.01,289.58c-.73.15-1.47.33-2.23.54-.78.23-1.57.49-2.37.78-1.6.58-3.25,1.3-4.92,2.16-3.33,1.73-6.72,4.08-9.96,7.24.41.51,1.29,1.59,2.64,2.92.67.66,1.46,1.39,2.37,2.14.89.77,1.95,1.47,3.03,2.32,2.2,1.64,4.85,3.24,8,4.49,1.58.63,3.28,1.17,5.11,1.59.92.2,1.85.4,2.81.61.96.19,1.95.34,2.98.46,1.32.15,5.59.56,11.48-.37,1.47-.23,3.04-.55,4.69-.97,1.65-.42,3.32-.88,5.08-1.51,3.51-1.24,7.24-3.03,11.01-5.59-.37-.6-1.17-1.87-2.44-3.5-.63-.81-1.39-1.72-2.26-2.67-.87-.96-1.94-1.86-3.09-2.82-2.33-1.89-5.17-3.81-8.51-5.4-1.68-.78-3.44-1.54-5.4-2.07-1.97-.51-4.05-.89-6.25-1.1-1.4-.13-5.98-.5-11.79.73Z"/><path class="cls-4" d="M780.37,299.41c.71,2.02,1.31,3.47,1.62,4.14,3.75,8.4,9.32,13.79,13.99,17.8,4.77,3.87,9.1,5.81,10.44,6.39,3.93-8.2,4.36-16.23,3.58-22.62-.39-3.18-1.03-5.98-1.73-8.08-.71-2.08-1.39-3.56-1.71-4.25-2.04-4.34-4.61-8.03-7.32-11.13-.68-.77-1.37-1.51-2.06-2.21-.72-.67-1.45-1.3-2.17-1.89-1.45-1.19-2.89-2.24-4.27-3.17-5.57-3.7-10.28-5.38-11.75-5.82-2.51,8.93-2.03,17.07-.79,23.2.62,3.07,1.43,5.66,2.17,7.64Z"/><path class="cls-4" d="M797.12,337.13c-.6-1.26-2.64-5.35-6.69-9.81-3.92-4.58-10.36-9.01-18.85-11.15-.68-.16-2.12-.51-4.14-.75-2.07-.18-4.71-.26-7.72.02-6.01.56-13.42,2.58-20.62,7.95.67,1.15,2.87,4.84,6.92,8.53,2,1.88,4.59,3.62,7.45,5.4,2.92,1.72,6.37,3.17,10.48,4.08.65.15,2.05.44,4.04.66,1.93.28,4.43.52,7.37.47,5.88-.09,13.56-1.26,21.76-5.42Z"/><path class="cls-4" d="M841.38,323.76c-.46-1.03-1.01-1.97-1.57-2.88-.56-.91-1.14-1.78-1.73-2.62-2.38-3.36-4.98-6.14-7.45-8.39-1.24-1.12-2.42-2.13-3.59-2.96-1.18-.82-2.28-1.51-3.26-2.09-1.96-1.16-3.46-1.86-4.16-2.18-3.64,8.52-4,16.42-3.72,22.82.36,6.32,1.75,10.82,2.21,12.2,1.49,4.26,3.15,8.15,5.18,11.36,2.01,3.23,4.25,5.9,6.44,8.08,4.14,4.53,8.11,7.09,9.35,7.86,5.01-7.63,6.62-15.64,6.68-22.06-.03-6.34-1.42-11.16-1.87-12.63-.7-2.31-1.55-4.48-2.51-6.51Z"/><path class="cls-4" d="M816.53,354.92c-2.87-2.36-6.17-4.66-10.4-6.11-1.33-.48-5.69-2-11.65-2.3-5.9-.37-13.68.84-21.58,5.28.27.6.85,1.86,1.83,3.49.49.81,1.07,1.71,1.76,2.66.64,1,1.39,2.05,2.25,3.12,3.41,4.32,8.83,8.69,16.47,11.79,1.24.48,5.3,1.96,11.26,2.56,5.82.7,13.48.64,22.14-2.37-.41-1.34-1.83-5.71-5.17-10.75-1.78-2.42-4.06-4.98-6.9-7.37Z"/><path class="cls-4" d="M642.86,248.18c1.13.92,2.26,1.88,3.44,2.73,2.35,1.73,4.83,3.24,7.41,4.52,1.29.64,2.6,1.22,3.94,1.75,1.35.49,2.66,1.1,4.02,1.55,2.71.95,5.51,1.67,8.36,2.14,2.85.48,5.79.65,8.66.81,5.79.21,11.76-.62,17.63-2.52h0s0,0,0,0c-2.47-5.54-6.16-10.47-10.65-14.68-2.22-2.16-4.75-3.87-7.38-5.45-2.64-1.57-5.43-2.92-8.31-4.05-2.86-1.18-5.89-1.87-8.93-2.37-3.04-.49-6.11-.73-9.16-.7-1.53.03-3.02.06-4.55.29-1.52.22-3.02.5-4.51.86-2.97.71-5.85,1.71-8.6,2.99-5.28-1.53-10.68-2.53-16.04-3.72l-4.03-.86c-1.34-.29-2.68-.59-4.04-.79l-8.13-1.34-.4,2.48,8.09,1.33c1.35.19,2.69.5,4.02.79l4.01.86c5.34,1.18,10.72,2.18,15.97,3.7,1.79,2.47,3.76,4.73,5.87,6.78,1.06,1.02,2.16,1.99,3.29,2.9Z"/><path class="cls-4" d="M903.42,553.37c2.56,1.2,4.94,2.85,7.01,4.86.17-.16.36-.31.54-.47-.29-3.41-.63-6.82-1.01-10.22-3.16-27.83-9.41-55.07-18.51-81.11-2.93.89-5.88,1.35-8.82,1.35-.41,0-.81-.03-1.21-.05,9.76,27.29,16.17,55.69,19.15,84.45.97.35,1.92.74,2.86,1.19Z"/><path class="cls-4" d="M845.08,222.88l4.14,4.35,4.13,4.35c1.37,1.46,2.78,2.88,4.06,4.42-.04-.02-.08-.04-.11-.06-3.91,6.62-5.3,12.87-5.7,17.7-.4,4.84.26,8.25.43,9.33,1.1,6.77,4.12,11.51,7.16,14.77.78.8,1.47,1.57,2.17,2.22.69.66,1.35,1.22,1.95,1.7,1.2.96,2.16,1.56,2.62,1.84,2.35-2.99,4.03-6,5.21-8.9,1.17-2.89,1.89-5.68,2.16-8.08.61-4.84,0-8.49-.2-9.6-.41-2.24-1.03-4.3-1.8-6.17-.38-.94-.8-1.83-1.25-2.67-.45-.84-.98-1.6-1.49-2.33h0s-.01-.02-.01-.02c-1.18-1.65-2.44-3.08-3.67-4.29-3.62-4.18-7.13-8.47-11.02-12.41l-5.71-6.02c-1.91-2-3.78-4.04-5.82-5.91l-1.48,1.5,2.16,2.08,2.07,2.17Z"/><path class="cls-4" d="M811.42,270.47l-3.55-3.66-3.54-3.67-1.77-1.83c-.58-.62-1.23-1.17-1.85-1.76l-1.47,1.51c6.56,6.56,13.09,13.18,19.07,20.28.84,1.19,1.87,2.4,3.12,3.56h.01s0,.01,0,.01c1.14,1,2.34,2.06,3.78,3.01,1.44.95,3.08,1.8,4.98,2.51.94.35,4.04,1.44,8.73,1.81,2.37.16,4.99.26,8-.06,3-.31,6.33-.98,9.9-2.24-.1-.51-.33-1.6-.81-3.03-.24-.72-.54-1.52-.92-2.38-.39-.86-.81-1.79-1.42-2.69-2.36-3.65-6.24-7.73-12.32-10.15-.95-.39-4.29-1.48-8.99-1.65-4.72-.17-10.83.64-17.52,4.05,0,.03.02.07.03.11-.57-.63-1.1-1.3-1.69-1.9l-1.78-1.83Z"/><path class="cls-4" d="M872.82,291.03c.43,6.85,2.96,11.87,5.67,15.42.34.44.68.86,1.01,1.26.32.41.63.79.94,1.16.62.72,1.22,1.35,1.78,1.89,1.1,1.07,2,1.77,2.42,2.09,2.64-2.74,4.6-5.58,6.06-8.35.73-1.38,1.33-2.74,1.83-4.07.5-1.32.83-2.56,1.1-3.76,1.08-4.76.84-8.46.75-9.58-.3-3.54-1.12-6.72-2.32-9.42-1.26-2.66-2.79-4.91-4.32-6.75-3.06-3.68-6.11-5.71-7.05-6.31-9.05,12.45-8.09,24.28-7.88,26.41Z"/><path class="cls-4" d="M864.91,319.61c3.01-.01,6.39-.36,10.07-1.25-.05-.52-.17-1.62-.51-3.1-.17-.74-.39-1.57-.68-2.46-.29-.9-.65-1.85-1.17-2.81-1.98-3.87-5.44-8.32-11.25-11.33-1.93-.92-12.67-5.71-26.62-.22.17.98.77,4.13,2.75,7.62.99,1.75,2.34,3.58,4.17,5.3,1.73,1.78,3.92,3.47,6.76,4.86.9.45,3.88,1.84,8.5,2.67,2.34.4,4.97.74,7.98.72Z"/><path class="cls-4" d="M895.02,337.14c.6.94,1.15,1.82,1.7,2.6.55.78,1.09,1.47,1.58,2.05.99,1.17,1.82,1.96,2.21,2.32,2.89-2.47,5.13-5.1,6.85-7.71,1.72-2.61,2.95-5.2,3.69-7.5,1.55-4.63,1.67-8.33,1.69-9.47.05-3.55-.46-6.79-1.38-9.6-.99-2.78-2.29-5.17-3.63-7.15-2.69-3.97-5.52-6.29-6.4-6.98-10.23,11.5-10.44,23.38-10.44,25.51-.24,6.87,1.79,12.11,4.13,15.92Z"/><path class="cls-4" d="M872.34,347.4c2.29.63,4.85,1.23,7.87,1.51,3,.29,6.4.28,10.15-.25,0-.52-.01-1.63-.21-3.13-.1-.75-.24-1.6-.44-2.52-.2-.92-.46-1.92-.88-2.92-1.6-4.04-4.6-8.82-10.09-12.39-1.82-1.11-12.05-6.94-26.47-2.86.07.99.36,4.19,1.99,7.86.82,1.84,1.97,3.8,3.63,5.69,1.54,1.95,3.56,3.85,6.25,5.51.86.53,3.68,2.21,8.2,3.5Z"/><path class="cls-4" d="M906.13,353.69c-.91,6.81.6,12.23,2.57,16.24,1.78,4.07,4.03,6.7,4.74,7.51,6.23-4.33,9.96-9.61,12.03-14.1,1.99-4.45,2.47-8.12,2.6-9.25.41-3.53.18-6.79-.41-9.7-.67-2.88-1.76-5.37-2.9-7.48-2.29-4.22-4.88-6.8-5.69-7.58-5.67,5.19-8.83,10.77-10.62,15.28-1.8,4.52-2.14,7.97-2.33,9.07Z"/><path class="cls-4" d="M902.89,380.94c.1-1.04.37-4.43-.64-8.69-1.2-4.18-3.73-9.23-8.85-13.34-.76-.67-3.66-2.68-8.11-4.23-4.47-1.55-10.55-2.57-17.95-1.28-.02.99-.05,4.2,1.22,8.02.62,1.92,1.64,3.96,3.02,6.04,1.34,2.1,3.18,4.19,5.69,6.11.8.62,3.45,2.57,7.83,4.3,4.27,1.76,10.19,3.37,17.78,3.07Z"/><path class="cls-4" d="M808.66,229.11l4.31,4.08c1.35,18.54,14.42,32.57,33.59,33.97h0c.53-4.7-.02-9.28-1.4-13.58-.69-2.15-1.59-4.21-2.68-6.17-1.13-1.92-2.5-3.67-4-5.32-3.03-3.26-6.61-6.01-10.7-7.84-4.17-1.75-8.71-2.7-13.41-2.63-1.44-1.36-2.87-2.75-4.33-4.1l-4.52-3.88-9.04-7.76-1.34,1.63,9.01,7.74,4.5,3.87Z"/><path class="cls-4" d="M923.83,551.3c1.08-.23,2.2-.42,3.33-.56h.05s.05-.01.05-.01c.59-.07,1.17-.1,1.72-.13,3.48-53.7-.66-107.25-12.37-159.58-.6-2.7-3.28-4.39-5.97-3.79-2.69.6-4.39,3.28-3.79,5.97,11.7,52.29,15.52,106.39,11.77,159.73,1.7-.71,3.44-1.27,5.19-1.63Z"/><path class="cls-4" d="M976.91,439.28c-.12,1.4-.14,2.75-.09,4.02.02,1.28.06,2.49.18,3.63.44,4.53,1.68,7.81,2.08,8.83,6.38-2.24,10.84-6.23,13.81-9.98.74-.94,1.39-1.86,1.95-2.73.53-.87.96-1.69,1.33-2.42.73-1.47,1.15-2.6,1.35-3.13.78-2.15,1.31-4.27,1.65-6.32.17-1.03.29-2.03.37-3.02.05-.98.03-1.94,0-2.87h0s0-.02,0-.02c-.09-2.1-.35-4.06-.69-5.82-1.3-11.43-3.56-22.72-6.14-33.91l-1.81.44,2.69,12.16c.24,1.01.41,2.04.58,3.06l.52,3.07,1.04,6.14s-.04-.08-.06-.12c-1.49.84-2.84,1.76-4.07,2.72-.62.48-1.2.97-1.76,1.47-.57.5-1.12,1.01-1.65,1.52-2.09,2.04-3.74,4.14-5.04,6.08-2.61,3.88-3.75,7.15-4.13,8.17-1.23,3.19-1.86,6.22-2.1,9.02Z"/><path class="cls-4" d="M942.35,408.92c.23,1.15.41,2.31.62,3.46l1.24,6.93c.1.58.22,1.15.31,1.73l.22,1.75.44,3.49c.05,1.47.23,3.07.61,4.75v.02s0,0,0,0c.37,1.49.75,3.05,1.35,4.67.6,1.61,1.41,3.27,2.47,4.95.26.42.84,1.3,1.75,2.46.45.58,1.03,1.22,1.62,1.92.6.69,1.28,1.43,2.06,2.19,3.12,3.03,7.74,6.44,14.22,8.56.35-.97,1.44-4.18,1.69-8.65.05-1.11.09-2.31-.02-3.55-.13-1.25-.35-2.55-.66-3.89-.64-2.68-1.69-5.5-3.35-8.28-.53-.88-2.48-3.73-5.9-6.58-3.43-2.85-8.3-5.66-15.06-6.58,0,.03-.02.07-.02.11-.62-3.38-1.18-6.78-1.83-10.15l-2.31-10.06-1.81.45,1.57,6.86.79,3.43Z"/><path class="cls-4" d="M991.01,453.21c-1.14.88-2.18,1.78-3.11,2.69-.93.91-1.77,1.81-2.57,2.69-3.15,3.51-4.8,6.6-5.29,7.57-.77,1.51-1.39,2.99-1.88,4.44-.5,1.45-.98,2.87-1.29,4.24-.66,2.75-.9,5.32-.9,7.6-.01,1.14.07,2.21.11,3.19.04.97.11,1.86.21,2.63.18,1.55.43,2.67.55,3.19,6.64-1.4,11.78-4.75,15.02-8.11,3.33-3.34,5.15-6.6,5.69-7.61,1.77-3.16,2.64-6.35,3.18-9.35.53-3.01.64-5.83.53-8.3-.4-4.95-1.67-8.49-2.06-9.56-3.19,1.29-5.9,2.93-8.18,4.68Z"/><path class="cls-4" d="M969.52,470.17c-.41-1.45-.94-2.93-1.63-4.42-.44-.95-1.91-4.02-4.87-7.29-.37-.41-.76-.82-1.18-1.23-.44-.41-.9-.82-1.39-1.23-.97-.81-2.05-1.6-3.23-2.35-2.36-1.49-5.13-2.79-8.37-3.69-.18.46-.54,1.43-.89,2.78-.17.68-.35,1.46-.49,2.32-.16.86-.22,1.8-.36,2.81-.23,2.02-.26,4.32.11,6.81.19,1.25.48,2.54.89,3.88.22.66.44,1.34.66,2.03.24.69.51,1.38.82,2.09.39.9,1.73,3.8,4.52,7.23.7.86,1.49,1.75,2.38,2.65.89.9,1.8,1.8,2.87,2.7,2.11,1.78,4.65,3.52,7.7,4.98.25-.46.76-1.45,1.33-2.87.28-.71.58-1.53.87-2.45.29-.92.47-1.94.65-3.04.35-2.2.51-4.74.29-7.48-.13-1.37-.29-2.78-.69-4.23Z"/><path class="cls-4" d="M970.07,526.89c6.73-.54,12.04-3.27,15.85-6.15,1.89-1.44,3.45-2.9,4.54-4.13,1.07-1.23,1.77-2.22,2.09-2.69,2.02-2.93,3.43-5.96,4.4-8.86.24-.73.46-1.44.65-2.15.16-.71.29-1.41.4-2.1.22-1.37.36-2.69.44-3.93.29-4.95-.39-8.6-.66-9.72-6.67,1.73-11.71,5.07-15.18,8.16-1.74,1.55-3.1,3.03-4.09,4.25-1.04,1.21-1.74,2.14-2.05,2.58-3.99,5.55-5.37,11.14-6.19,15.63-.7,4.51-.33,8.01-.2,9.09Z"/><path class="cls-4" d="M944.13,496.49c-.01,2.52.35,5.27,1.29,8.25.15.47.48,1.48,1.08,2.84.54,1.35,1.32,3.04,2.45,4.91,2.26,3.74,5.88,8.23,11.61,11.94.58-.85,2.44-3.69,3.8-7.96,1.47-4.23,1.91-10.02.11-16.26-.15-.5-.46-1.55-1.06-2.94-.66-1.4-1.59-3.12-2.9-4.94-2.6-3.65-6.67-7.65-12.81-10.26-.49.86-2.03,3.65-2.89,7.63-.46,1.99-.61,4.3-.68,6.8Z"/><path class="cls-4" d="M975.03,557.79c4.05-2.39,6.63-5.08,7.41-5.92,1.22-1.31,2.3-2.67,3.24-4.04.49-.68.89-1.38,1.26-2.08.37-.7.72-1.4,1.04-2.09,1.27-2.78,2.08-5.49,2.6-7.91.25-1.22.46-2.35.56-3.41.08-1.06.12-2.02.12-2.87,0-1.69-.1-2.91-.16-3.48-6.83.85-12.04,3.57-16.03,6.13-3.92,2.59-6.29,5.17-7.01,5.98-2.18,2.55-4.06,5.07-5.36,7.57-1.32,2.49-2.2,4.93-2.78,7.15-1.36,4.35-1.52,7.85-1.55,8.94,6.77.37,12.51-1.59,16.66-3.95Z"/><path class="cls-4" d="M939.49,544.72c1.72,4,4.63,8.89,9.79,13.33.71-.76,2.99-3.31,4.97-7.33.89-2.05,1.68-4.47,2.15-7.18.44-2.72.68-5.7.04-8.96-.19-1.03-.84-4.4-2.88-8.33-1.96-3.92-5.65-8.46-11.45-11.88-.28.4-.88,1.25-1.55,2.48-.34.61-.69,1.33-1.05,2.12-.4.79-.79,1.66-1.16,2.61-1.5,3.8-2.28,8.91-1.42,14.97.16.98.72,4.13,2.56,8.18Z"/><path class="cls-4" d="M958.28,368.17l.94,2.89c1.24,3.86,2.6,7.69,3.59,11.63-.92,2.07-1.64,4.18-2.16,6.3-.26,1.06-.47,2.13-.63,3.19-.17,1.07-.36,2.16-.47,3.23-.23,2.16-.28,4.31-.13,6.45.07,1.07.19,2.13.35,3.18.19,1.05.29,2.12.51,3.16.4,2.1.99,4.16,1.75,6.16.76,2.01,1.75,3.96,2.72,5.86,2.03,3.8,4.79,7.31,8.2,10.37,2.63-3.66,4.42-7.87,5.44-12.32.56-2.23.71-4.49.74-6.78.02-2.28-.15-4.58-.51-6.84-.31-2.27-1-4.48-1.81-6.62-.82-2.14-1.81-4.2-2.97-6.14-.59-.97-1.17-1.92-1.89-2.81-.71-.89-1.45-1.75-2.24-2.57-1.57-1.64-3.28-3.12-5.13-4.4-.99-3.96-2.36-7.8-3.61-11.69l-.95-2.91c-.32-.97-.62-1.94-1-2.89l-2.18-5.71-1.74.67,2.17,5.69c.38.94.68,1.91,1,2.88Z"/><path class="cls-4" d="M951.42,564.74c-2.67-.71-5.41.88-6.12,3.55-.43,1.63-.89,3.26-1.33,4.89-.02.46-.03.91-.08,1.36.75.1,1.49.23,2.24.39l.09.02.09.02c1.88.46,3.78,1.14,5.65,2.04l.04.02.04.02c.37.18.73.38,1.09.58.63-2.25,1.25-4.51,1.85-6.77.71-2.67-.88-5.41-3.55-6.12Z"/><path class="cls-4" d="M1044.85,527.51l-.52,2.16-.62,2.14-1.25,4.28-1.25,4.28c-.43,1.42-.81,2.86-1.32,4.26,0-.03,0-.07,0-.09-5.71-.04-10.24,1.41-13.49,2.96-3.26,1.55-5.19,3.25-5.83,3.76-3.93,3.24-5.85,6.94-6.81,10.11-.22.8-.46,1.53-.62,2.22-.16.69-.28,1.32-.36,1.89-.17,1.13-.2,1.97-.2,2.37,2.8.39,5.36.34,7.66.02,2.29-.33,4.35-.91,5.99-1.63,3.33-1.42,5.45-3.17,6.09-3.71,1.29-1.1,2.37-2.27,3.29-3.46.46-.6.87-1.2,1.25-1.8.37-.6.66-1.22.94-1.83h0s0-.01,0-.01c.62-1.37,1.06-2.71,1.38-3.96,1.33-3.89,2.77-7.74,3.85-11.71l1.73-5.91c.57-1.97,1.18-3.93,1.62-5.94l-1.52-.39Z"/><path class="cls-4" d="M995.08,539.81h0s0,.01,0,.01c-.22,1.11-.45,2.27-.52,3.55-.07,1.27,0,2.65.25,4.13.13.74.58,3.13,2.1,6.28.78,1.58,1.69,3.3,3.03,5.11,1.32,1.81,2.99,3.69,5.13,5.52.29-.26.9-.81,1.64-1.65.37-.42.77-.91,1.18-1.48.41-.57.85-1.19,1.2-1.92,1.46-2.87,2.63-6.89,1.91-11.7-.1-.76-.65-3.31-2.3-6.39-1.66-3.09-4.46-6.71-9.14-9.73-.02.02-.04.04-.06.06.19-.6.42-1.19.59-1.8l.51-1.82,1.03-3.65,1.03-3.64.52-1.82c.18-.6.29-1.23.44-1.84l-1.52-.38c-1.76,6.66-3.57,13.32-5.89,19.82-.45.98-.84,2.1-1.12,3.34Z"/><path class="cls-4" d="M1010.34,575.07c-4.24,2.84-6.51,6.34-7.78,9.4-.16.38-.3.76-.43,1.12-.14.36-.27.7-.39,1.04-.23.67-.41,1.29-.55,1.84-.28,1.11-.39,1.94-.44,2.34,2.75.67,5.3.87,7.62.77,1.16-.05,2.26-.17,3.29-.35,1.03-.17,1.95-.43,2.82-.69,3.46-1.08,5.74-2.62,6.43-3.1,2.16-1.51,3.89-3.23,5.18-5,1.24-1.8,2.11-3.62,2.72-5.29,1.22-3.34,1.38-6.05,1.41-6.88-11.37-1.16-18.6,3.88-19.89,4.81Z"/><path class="cls-4" d="M993.6,586.67c.31-.23.98-.72,1.8-1.48.41-.38.86-.84,1.32-1.36.47-.52.95-1.11,1.37-1.8,1.74-2.72,3.3-6.6,3.07-11.45-.13-1.58-1.07-10.27-9.8-17.17-.56.48-2.36,2.04-3.86,4.61-.75,1.29-1.42,2.84-1.84,4.65-.5,1.78-.76,3.81-.6,6.16.05.75.27,3.18,1.46,6.45.62,1.65,1.38,3.46,2.52,5.39,1.13,1.93,2.62,3.97,4.57,6Z"/><path class="cls-4" d="M997.71,597.95c-4.5,2.41-7.11,5.67-8.67,8.6-.38.74-.74,1.42-1.04,2.06-.3.64-.54,1.25-.73,1.78-.38,1.08-.58,1.9-.66,2.28,2.67.93,5.19,1.38,7.51,1.51,2.32.13,4.44-.05,6.19-.43,3.55-.74,5.97-2.04,6.71-2.45,2.3-1.29,4.19-2.83,5.65-4.47,1.41-1.67,2.46-3.4,3.23-5,1.54-3.21,1.97-5.89,2.09-6.71-11.21-2.27-18.9,2.03-20.27,2.83Z"/><path class="cls-4" d="M975.95,601.44c.94,2.03,2.21,4.21,3.95,6.42.34-.19,1.04-.62,1.93-1.3.45-.34.94-.75,1.45-1.22.51-.47,1.06-1.01,1.55-1.65,2-2.54,3.94-6.25,4.18-11.11.03-1.59-.04-10.33-8.06-18.06-.61.42-2.55,1.79-4.3,4.21-.87,1.21-1.7,2.68-2.3,4.45-.67,1.72-1.14,3.72-1.2,6.07-.02.75-.05,3.19.82,6.57.45,1.71,1.02,3.58,1.97,5.61Z"/><path class="cls-4" d="M989.26,617.97c-3.58.53-5.91,1.6-6.69,1.9-4.71,1.96-7.62,4.95-9.47,7.72-1.95,2.66-2.8,5.09-3.05,5.85,5.1,2.38,9.89,2.8,13.54,2.45,3.6-.39,6.14-1.45,6.91-1.78,2.42-1.06,4.43-2.42,6.07-3.89,1.59-1.5,2.79-3.14,3.72-4.65,1.85-3.04,2.54-5.67,2.74-6.48-5.45-1.7-10.21-1.64-13.77-1.11Z"/><path class="cls-4" d="M974.15,606.86c-.68-3.45-2.29-7.73-5.88-12-.65.36-2.72,1.54-4.69,3.78-1,1.11-1.93,2.53-2.75,4.19-.85,1.65-1.5,3.6-1.8,5.94-.1.75-.36,3.18.17,6.63.46,3.4,1.65,7.8,4.67,12.56.7-.32,2.98-1.42,5.34-3.66,2.24-2.33,4.53-5.84,5.25-10.66.15-.74.35-3.35-.31-6.78Z"/><path class="cls-4" d="M1024.04,543.33c1.12-1.25,2.11-2.6,2.96-4.03.81-1.44,1.42-2.98,1.92-4.56.96-3.16,1.39-6.49,1.03-9.8-.43-3.33-1.52-6.6-3.32-9.59.34-1.44.69-2.87,1.01-4.31l.8-4.35,1.61-8.7-1.55-.25-1.6,8.67-.8,4.34-1.01,4.29c-11.4,7.79-15.52,21.43-9.25,34.25,3.21-1.41,5.95-3.48,8.19-5.97Z"/><path class="cls-4" d="M958.13,636.2c-11.36,11.79-24.15,22.15-38.02,30.81-.72.45-1.46.87-2.19,1.31,4.25-6.96,8.48-15,13.73-27.67-1.01-.21-2-.45-2.96-.77-.96,2.52-2.36,4.97-4.2,7.3l-.07.09-.07.09c-1.33,1.59-2.87,3.1-4.59,4.5l-.08.07-.09.07c-1.74,1.34-3.73,2.58-5.91,3.7l-.06.03c-.89,1.66-1.76,3.23-2.63,4.72.35-1.3.69-2.59,1.03-3.89l-2.02,1.04-3.58-1.88-.09-.05c-.8-.42-1.57-.86-2.31-1.31-.57-.35-1.12-.7-1.66-1.06-.66-.45-1.31-.91-1.91-1.38l-.08-.07-.08-.07c-1-.83-1.93-1.69-2.8-2.59-.62-.64-1.21-1.28-1.75-1.95l-.07-.09-.07-.09c-.3-.39-.58-.79-.85-1.19-.08.96-.15,1.92-.24,2.87v29.08c.27.08.55.16.82.24.92.27,1.85.54,2.76.81.12.04.24.07.37.11.67.2,1.33.4,2,.6.24.07.48.14.71.21,1.29.39,2.59.78,3.87,1.17,1.21.37,2.4.74,3.59,1.12,1.13.35,2.26.71,3.38,1.06,4.55-2.39,9.03-4.94,13.4-7.66,14.57-9.09,28-19.97,39.93-32.35,1.92-1.99,1.86-5.15-.13-7.07-1.99-1.92-5.15-1.86-7.07.13Z"/><path class="cls-4" d="M713.03,362.96c1.81,3.12,3.66,4.91,4.23,5.5,3.55,3.66,7.4,5.26,10.63,5.96.81.16,1.56.33,2.26.43.7.11,1.34.17,1.91.21,1.14.07,1.98.03,2.38.01.17-2.82-.09-5.37-.6-7.63-.51-2.26-1.26-4.26-2.11-5.84-1.68-3.21-3.6-5.17-4.2-5.77-1.2-1.19-2.45-2.18-3.72-3-.63-.41-1.27-.77-1.9-1.1-.63-.32-1.27-.56-1.9-.79h0s-.02,0-.02,0c-1.42-.51-2.79-.84-4.06-1.05-3.98-1.01-7.94-2.13-11.98-2.88l-6.03-1.24c-2.01-.4-4.02-.86-6.05-1.13l-.27,1.54,2.2.35,2.18.44,4.37.89,4.36.9c1.45.31,2.92.57,4.35.97-.03,0-.07,0-.09.01.43,5.69,2.24,10.09,4.05,13.2Z"/><path class="cls-4" d="M731.64,382.85c-.28-.27-.88-.83-1.78-1.5-.45-.33-.97-.69-1.57-1.06-.6-.36-1.26-.75-2.01-1.04-2.98-1.22-7.08-2.06-11.81-.96-.75.16-3.24.92-6.18,2.81-2.95,1.9-6.32,4.99-8.96,9.9.02.02.04.04.06.05-.61-.14-1.22-.33-1.84-.44l-1.86-.36-3.72-.73-3.71-.73-1.86-.37c-.62-.13-1.25-.19-1.87-.29l-.26,1.55c6.78,1.21,13.57,2.47,20.23,4.26,1.01.37,2.16.67,3.42.85h.01s0,0,0,0c1.12.13,2.3.26,3.58.23,1.28-.03,2.64-.21,4.1-.59.73-.19,3.08-.84,6.09-2.6,1.52-.91,3.15-1.96,4.85-3.43,1.7-1.46,3.44-3.29,5.08-5.57Z"/><path class="cls-4" d="M756.91,371.33c-1.36-3.36-3.08-5.51-3.61-6.16-1.68-2.03-3.54-3.61-5.41-4.76-1.9-1.09-3.78-1.81-5.5-2.28-3.43-.94-6.14-.88-6.97-.85-.23,11.43,5.38,18.23,6.41,19.43,3.17,3.99,6.85,5.98,10,6.99.39.13.78.23,1.15.34.37.11.72.22,1.07.3.69.18,1.32.3,1.88.4,1.13.18,1.97.23,2.36.25.44-2.79.43-5.36.15-7.66-.14-1.15-.35-2.24-.61-3.25-.26-1.02-.58-1.91-.92-2.76Z"/><path class="cls-4" d="M749.14,397.5c1.83-1.29,3.74-2.93,5.61-5.04-.25-.29-.79-.91-1.62-1.67-.42-.38-.9-.79-1.46-1.21-.55-.43-1.18-.85-1.9-1.22-2.85-1.51-6.85-2.76-11.67-2.13-1.57.26-10.14,1.9-16.31,11.17.52.52,2.22,2.19,4.91,3.47,1.35.64,2.94,1.19,4.79,1.46,1.81.35,3.86.45,6.18.09.74-.11,3.14-.53,6.31-1.98,1.6-.75,3.34-1.66,5.17-2.95Z"/><path class="cls-4" d="M765.66,387.46c2.77,4.29,6.23,6.62,9.27,7.94.77.32,1.48.62,2.14.86.67.24,1.28.43,1.84.58,1.1.29,1.94.42,2.33.48.71-2.73.96-5.29.9-7.61-.06-2.32-.41-4.42-.93-6.14-1.02-3.48-2.52-5.79-2.99-6.48-1.48-2.19-3.17-3.94-4.92-5.27-1.78-1.27-3.59-2.18-5.25-2.81-3.32-1.28-6.03-1.49-6.86-1.53-1.35,11.35,3.56,18.67,4.47,19.98Z"/><path class="cls-4" d="M770.9,408.86c1.95-1.1,4.02-2.55,6.08-4.46-.22-.32-.7-.99-1.46-1.82-.38-.42-.82-.87-1.34-1.35-.51-.47-1.09-.97-1.77-1.41-2.69-1.79-6.55-3.42-11.41-3.27-1.58.1-10.29.88-17.34,9.5.47.57,2,2.4,4.55,3.94,1.28.77,2.81,1.47,4.62,1.93,1.77.53,3.8.83,6.15.71.75-.04,3.18-.21,6.48-1.35,1.66-.59,3.48-1.31,5.44-2.42Z"/><path class="cls-4" d="M802.27,391.7c-1.25-2.33-2.77-4.21-4.37-5.73-1.63-1.47-3.36-2.52-4.94-3.33-3.18-1.6-5.86-2.07-6.68-2.2-1.25,5.57-.81,10.31.02,13.82.82,3.52,2.08,5.76,2.43,6.52,2.33,4.53,5.56,7.2,8.46,8.81,2.71,1.67,5.11,2.32,5.98,2.53l.14-.17s.03-.03.04-.05c1.86-5.18,1.89-9.89,1.26-13.45-.68-3.56-1.94-6-2.34-6.74Z"/><path class="cls-4" d="M794.24,413.72c-2.51-2.04-6.19-4.04-11.05-4.37-.75-.09-3.37-.08-6.74.86-3.38.95-7.52,2.92-11.48,6.84.41.62,1.75,2.58,4.14,4.37,1.19.91,2.68,1.72,4.4,2.4,1.71.71,3.71,1.2,6.06,1.31.75.04,3.2.1,6.6-.7,3.35-.74,7.64-2.27,12.14-5.68-.38-.67-1.65-2.86-4.08-5.02Z"/><path class="cls-4" d="M715.7,373.33h0c-1.67-3.09-3.95-5.64-6.62-7.68-1.33-1.01-2.76-1.89-4.25-2.62-1.5-.69-3.09-1.18-4.7-1.54-3.23-.7-6.58-.85-9.85-.23-3.28.7-6.45,2.06-9.29,4.09-1.46-.22-2.91-.46-4.38-.66l-4.4-.45-8.8-.89-.12,1.56,8.77.89,4.39.44,4.36.66c8.69,10.72,22.62,13.72,34.89,6.43Z"/><path class="cls-4" d="M899.71,551.9c-3.42-16.88-9.04-35.34-18.57-54.57-3.77-7.61-7.96-14.96-12.55-22.06-1.03,1.1-2.16,2.15-3.38,3.15l-.08.07-.08.07c-1.32,1.02-2.8,1.98-4.39,2.88,4.2,6.56,8.05,13.34,11.53,20.34,8.49,17.13,13.73,33.45,17.04,48.59h.72c1,.02,2.31.06,3.69.22h.06s.06.01.06.01c1.13.15,2.25.35,3.32.59.88.19,1.76.44,2.64.72Z"/><path class="cls-1" d="M252.56,601.14l44.49-11.08,23.43-27.95-15.7-63.05-27.11-12.81-50.44,12.56-9.01,21.8,33.86-8.43-16.73,19.81,17.22,69.14ZM281.4,504.88l16.3,65.46-26.35,6.56-16.3-65.46,26.35-6.56Z"/><path class="cls-1" d="M374.67,580.85l38.63-31.59-9.04-67.58-41.95-15.16-31.83,30.77,9.04,67.58,35.14,15.98ZM380.82,488.05l8.94,66.86-26.77,3.58-8.94-66.86,26.77-3.58Z"/><polygon class="cls-1" points="429.48 569.52 486.9 566.07 499.76 546.29 452.39 549.13 451.24 529.89 468.58 528.85 483.65 511.86 459.31 513.32 489.6 479.32 488.46 460.38 437.16 463.45 424.31 483.24 465.55 480.77 466.12 490.24 427.34 533.81 429.48 569.52"/><polygon class="cls-1" points="512.95 478.91 526.97 478.86 527.28 565.29 551.37 565.2 550.99 459.79 526.9 459.88 512.95 478.91"/><polygon class="cls-1" points="644.29 573.32 662.82 550.41 649.11 549.73 652.59 479.29 623.43 457.09 601.55 476.77 582.02 455.04 563.49 477.95 577.34 478.64 573.07 564.97 597.13 566.16 601.4 479.83 628.38 481.16 624.89 551.6 644.29 573.32"/><polygon class="cls-1" points="740.22 584.96 760.61 563.69 746.87 561.84 751.56 526.97 738.21 517.81 753.99 508.88 758.39 476.18 734.52 472.97 729.01 513.92 702.24 510.31 707.75 469.36 683.87 466.15 667.45 483.09 681.34 484.96 669.81 570.62 693.69 573.84 700.1 526.23 726.86 529.83 722.58 561.67 740.22 584.96"/><polygon class="cls-1" points="788.75 481.8 770.53 496.79 784.12 500.21 775.51 534.48 797.09 553.44 787.85 590.26 811.21 596.13 820.49 559.17 849.83 547.27 861.67 500.12 838.31 494.25 825.86 543.81 799.66 537.23 812.11 487.67 788.75 481.8"/><path class="cls-5" d="M934.6,699.25c-5.15-1.86-11.78-4.18-19.56-6.72-3.84-1.25-7.72-2.48-11.65-3.69-.26-.08-.52-.16-.79-.25-.34-.11-.68-.21-1.03-.32-.82-.25-1.65-.5-2.47-.74-.06-.02-.13-.04-.19-.06-1.47-.44-2.94-.89-4.42-1.32v157.02l-13.53-12.97-.13-.12-.13-.12c-.41-.39-.85-.79-1.28-1.18l-.03-.03h-.01c-.46-.42-.94-.85-1.45-1.28l-.06-.05c-.51-.43-1.04-.88-1.6-1.33l-.04-.03h0s-.03-.04-.03-.04h0c-.56-.46-1.15-.93-1.76-1.4l-.04-.03h0s-.08-.06-.08-.06c-.62-.48-1.26-.96-1.96-1.48l-.1-.07c-.68-.5-1.39-1.01-2.14-1.54l-.1-.07c-.76-.53-1.54-1.07-2.35-1.61l-.05-.03-.02-.02c-.86-.58-1.74-1.16-2.61-1.71-1.28-.82-2.61-1.64-3.97-2.46v22.37c21.21,7.26,39.55,15.15,54.01,23.29,9.08,5.11,15.39,9.64,19.59,13.18-3.93-31.83-7.86-63.66-11.78-95.5l11.78-79.63Z"/><path class="cls-5" d="M212.1,819.68l-.08.05c-.81.55-1.6,1.09-2.34,1.61l-.13.09c-.74.52-1.44,1.03-2.11,1.52l-.14.1c-.67.5-1.31.98-1.93,1.46l-.12.09c-.61.47-1.2.94-1.74,1.38l-.1.08c-.56.45-1.09.9-1.62,1.35l-.05.04c-.5.43-.98.85-1.46,1.28-.46.41-.9.82-1.3,1.2l-.15.14-.11.11-13.53,12.97v-156.92c-1.37.4-2.73.82-4.08,1.22-.06.02-.13.04-.19.06-.82.25-1.65.49-2.47.74-.34.1-.68.21-1.03.32-.26.08-.52.16-.79.25-3.93,1.21-7.81,2.44-11.65,3.69-6.68,2.18-13.2,4.42-19.56,6.72,4.38,26.24,8.76,52.49,13.14,78.73-4.38,32.13-8.76,64.26-13.14,96.39,1.74-1.43,4.46-3.6,7.97-6,3.24-2.21,7.09-4.63,11.63-7.18,14.46-8.14,32.8-16.04,54.01-23.29v-22.57c-1.48.89-2.92,1.77-4.3,2.66-.87.56-1.75,1.13-2.6,1.71Z"/><path class="cls-3" d="M262.47,410.77c-1.39-.67-2.75-1.16-4.07-1.48-1.36-.3-2.67-.44-3.92-.44-.05,0-.1,0-.15,0-2.43,0-4.75.59-6.81,1.46-2.11.9-4.02,2.14-5.8,3.55,0,0,0,0,0,0,3.57-2.82,6.61-6.32,7.83-11.28.53-2.4.68-5.24-.03-8.19-.34-1.5-.84-3.06-1.61-4.6-.38-.78-.8-1.57-1.28-2.37-.48-.79-1.05-1.55-1.65-2.33-.99,0-1.94.03-2.86.13-.55.07-1.09.15-1.61.25-.36.06-.71.13-1.05.2-1.69.34-3.24.9-4.63,1.56-2.77,1.26-4.92,3.12-6.48,5.03-3.12,3.99-4.01,8.53-4.03,13.02.01-3.32-.46-6.67-1.94-9.82-.52-1.11-1.17-2.19-1.98-3.24-1.55-1.93-3.68-3.8-6.44-5.09-1.39-.68-2.93-1.25-4.62-1.6-.85-.19-1.73-.35-2.66-.47-.92-.11-1.86-.14-2.86-.16-.61.78-1.18,1.53-1.67,2.32-.49.8-.92,1.58-1.3,2.36-.78,1.53-1.3,3.09-1.65,4.59-.73,2.94-.61,5.78-.1,8.18,1.17,4.97,4.19,8.5,7.73,11.35h0c-1.77-1.42-3.66-2.68-5.77-3.6-2.09-.91-4.45-1.52-6.93-1.52,0,0-.01,0-.02,0-.03,0-.06,0-.09,0-1.23,0-2.5.13-3.83.41-1.32.31-2.68.78-4.08,1.44-2.76,1.33-5.57,3.46-8.07,6.53h0c1.79,7.77,6.28,12.39,10.71,14.55,2.63,1.26,5.28,1.74,7.89,1.74,1.59,0,3.17-.19,4.73-.48-1.5-9.58,3.41-19.39,12.65-23.68.14-.06.28-.12.42-.18,2.92-1.28,5.96-1.9,8.97-1.9,1.17,0,2.34.1,3.49.28,7.09,1.12,13.51,5.63,16.77,12.63,2.19,4.72,2.59,9.81,1.48,14.51-1.4,5.93-5.2,11.23-10.84,14.37,1.21,2.35,2.75,4.57,4.77,6.41,1.16,1.06,2.47,2,3.99,2.74,2.25,1.11,4.99,1.81,8.08,1.81s6.43-.69,9.99-2.35h0c.86-3.85.81-7.36.15-10.35-.34-1.51-.81-2.87-1.38-4.1-.61-1.25-1.32-2.37-2.1-3.35-.51-.65-1.07-1.24-1.66-1.79-1.18-1.1-2.48-2.03-3.82-2.76-1.79-.97-3.69-1.63-5.63-2.12-.25-.06-.5-.14-.76-.2h0c.26.06.53.11.79.17,1.7.35,3.43.58,5.18.58,2.56,0,5.14-.47,7.72-1.68,4.46-2.13,8.98-6.7,10.84-14.46h0c-.65-.82-1.33-1.57-2.02-2.26-1.92-1.92-3.97-3.35-5.99-4.35Z"/><path class="cls-3" d="M203.18,438.75c-.71-1.52-1.22-3.08-1.57-4.66-.09-.42-.17-.83-.24-1.25-1.84.47-3.65,1.1-5.35,2-2.03,1.07-3.98,2.54-5.52,4.49-.79.98-1.5,2.09-2.13,3.33-.58,1.23-1.06,2.59-1.41,4.09-.68,2.98-.76,6.49.06,10.35h0c1.47.7,2.92,1.23,4.32,1.62,2.04.56,4,.82,5.83.82,1.66,0,3.22-.21,4.66-.57,1.17-.3,2.27-.69,3.26-1.17,3.94-1.88,6.58-5,8.5-8.43-2.21-1.08-4.25-2.53-6.02-4.31-1.77-1.79-3.28-3.9-4.4-6.31Z"/><path class="cls-3" d="M232.82,449.58c-1.01.47-2.05.85-3.09,1.16-2.08.62-4.2.92-6.3.92-3.39,0-6.72-.79-9.74-2.25-1.53,3.63-2.36,7.63-1.41,11.89.52,2.48,1.68,4.9,3.55,7.34.02.02.03.05.05.07.96,1.17,2.11,2.33,3.46,3.45,1.25.98,2.69,1.9,4.3,2.77.12.06.23.13.35.19,1.76-.9,3.33-1.88,4.68-2.92,1.36-1.11,2.52-2.25,3.49-3.42,1.92-2.44,3.11-4.87,3.66-7.38.23-.98.34-1.93.39-2.88.19-3.44-.67-6.69-1.98-9.68-.47.26-.94.51-1.43.74Z"/><path class="cls-3" d="M223.44,443.67c2.08,0,4.11-.45,6.02-1.34,7.16-3.33,10.28-11.85,6.95-19.01-2.34-5.04-7.44-8.29-13-8.29-.33,0-.65.03-.98.05-1.74.12-3.43.54-5.04,1.28-7.16,3.33-10.28,11.85-6.95,19.01.25.53.53,1.04.84,1.53,2.59,4.15,7.19,6.76,12.16,6.76Z"/><path class="cls-3" d="M865.73,448.85c-.47.26-.94.51-1.43.74-3.04,1.41-6.24,2.08-9.39,2.08-1.42,0-2.83-.15-4.21-.41-1.92-.37-3.77-.99-5.52-1.84-1.13,2.7-1.87,5.6-1.79,8.67.03,1.06.14,2.13.38,3.22.53,2.51,1.7,4.95,3.6,7.41.96,1.17,2.11,2.33,3.46,3.45,1.35,1.05,2.9,2.04,4.66,2.96.25-.13.49-.26.73-.39,1.46-.79,2.79-1.63,3.95-2.53,1.36-1.11,2.52-2.25,3.49-3.42.11-.14.21-.27.31-.41,1.74-2.3,2.84-4.6,3.35-6.96,1.05-4.51.08-8.75-1.59-12.56Z"/><path class="cls-3" d="M834.66,438.75c-.89-1.93-1.48-3.91-1.8-5.91-1.84.47-3.65,1.1-5.35,2-1.38.73-2.71,1.66-3.91,2.78-.57.53-1.12,1.09-1.61,1.72-.79.98-1.5,2.09-2.13,3.33-.58,1.23-1.06,2.59-1.41,4.09-.68,2.98-.76,6.49.06,10.35h0c3.62,1.73,7.06,2.44,10.15,2.44s5.71-.68,7.92-1.74c1.58-.75,2.94-1.72,4.14-2.81,1.79-1.63,3.21-3.57,4.36-5.62-4.43-2.17-8.18-5.8-10.42-10.62Z"/><path class="cls-3" d="M828.12,433.27c1.59,0,3.17-.19,4.73-.48-.01-.09-.03-.19-.04-.28-1.36-9.49,3.54-19.15,12.69-23.4,2.43-1.13,4.97-1.78,7.49-1.99.63-.05,1.26-.09,1.89-.09,4.01,0,7.93,1.1,11.35,3.11,3.76,2.22,6.92,5.55,8.9,9.81,1.72,3.71,2.33,7.65,1.98,11.45-.43,4.56-2.25,8.92-5.24,12.43-1.68,1.97-3.73,3.67-6.1,4.99,1.91,3.7,4.6,7.12,8.76,9.15,1.13.56,2.38,1.01,3.74,1.32,1.35.31,2.8.49,4.34.49,1.91,0,3.95-.27,6.09-.88,1.27-.36,2.57-.85,3.9-1.47h0c.86-3.85.81-7.36.15-10.35-.34-1.51-.81-2.87-1.38-4.1-.61-1.25-1.32-2.37-2.1-3.35-1.53-1.96-3.47-3.45-5.48-4.54-1.91-1.03-3.93-1.72-6.01-2.22-.13-.03-.25-.07-.38-.1h0c.12.03.25.05.37.08,1.84.41,3.71.67,5.6.67,2.56,0,5.14-.47,7.72-1.68,4.46-2.13,8.98-6.7,10.84-14.46h0c-2.47-3.1-5.26-5.25-8.01-6.61-1.39-.67-2.75-1.16-4.07-1.48-1.36-.3-2.67-.44-3.92-.44-.05,0-.1,0-.15,0-2.43,0-4.75.59-6.81,1.46-2.11.9-4.02,2.14-5.8,3.55,0,0,0,0,0,0,3.57-2.82,6.61-6.32,7.83-11.28.53-2.4.68-5.24-.03-8.19-.34-1.5-.84-3.06-1.61-4.6-.38-.78-.8-1.57-1.28-2.37-.48-.79-1.05-1.55-1.65-2.33-.99,0-1.94.03-2.86.13-.93.12-1.82.27-2.67.45-1.69.34-3.24.9-4.63,1.56-2.77,1.26-4.92,3.12-6.48,5.03-.86,1.09-1.53,2.23-2.08,3.39-1.45,3.08-1.94,6.37-1.96,9.63.01-4.49-.83-9.04-3.92-13.05-1.55-1.93-3.68-3.8-6.44-5.09-1.39-.68-2.93-1.25-4.62-1.6-.45-.1-.91-.19-1.39-.28-.42-.07-.84-.14-1.27-.2-.92-.11-1.86-.14-2.86-.16-.61.78-1.18,1.53-1.67,2.32-.49.8-.92,1.58-1.3,2.36-.78,1.53-1.3,3.09-1.65,4.59-.73,2.94-.61,5.78-.1,8.18,1.17,4.97,4.19,8.5,7.73,11.35h0c-1.77-1.42-3.66-2.68-5.77-3.6-2.09-.91-4.45-1.52-6.93-1.52,0,0-.01,0-.02,0-.03,0-.06,0-.09,0-1.23,0-2.5.13-3.83.41-1.32.31-2.68.78-4.08,1.44-2.14,1.03-4.3,2.55-6.34,4.61-.59.6-1.17,1.23-1.73,1.93h0c1.79,7.77,6.28,12.39,10.71,14.55,2.63,1.26,5.28,1.74,7.89,1.74Z"/><path class="cls-3" d="M867.88,423.32c-1.94-4.17-5.77-7.11-10.18-8-.92-.19-1.86-.29-2.82-.29-2.08,0-4.11.45-6.02,1.34-7.16,3.33-10.28,11.85-6.95,19.01,2.34,5.04,7.44,8.29,13,8.29,2.08,0,4.11-.45,6.02-1.34,3.24-1.51,5.64-4.08,7-7.11,1.65-3.66,1.77-7.99-.05-11.91Z"/><path class="cls-3" d="M634.12,329.08c-.11-3.25-.21-6.43-.31-9.61.39-.08.81-.11,1.19-.26.79-.31,1.23-1.06,1.17-1.96-.06-.86-.15-1.73-.29-2.58-.23-1.44-1.12-2.06-2.58-1.85-.09.01-.19.03-.25.04-.73-3.43-1.45-6.82-2.18-10.23.27-.03.57-.04.85-.11,1.1-.28,1.71-1.39,1.41-2.57-.22-.84-.47-1.67-.75-2.48-.41-1.21-1.66-1.72-2.82-1.18-.2.09-.4.19-.59.28-1.23-3.07-2.46-6.1-3.69-9.17.25-.16.53-.31.77-.51.72-.62.88-1.63.41-2.57-.32-.64-.65-1.28-.98-1.91-.7-1.36-1.7-1.71-3.06-1.07-.08.04-.17.08-.22.1-1.76-2.79-3.49-5.54-5.27-8.36.09-.07.23-.19.37-.31.97-.8,1.12-1.93.38-2.95-.36-.5-.75-.99-1.12-1.48-1.17-1.57-2.13-1.72-3.68-.54-2.06-2.29-4.12-4.57-6.22-6.9.13-.12.29-.25.44-.4.82-.82.88-2.02.08-2.86-.67-.7-1.37-1.36-2.12-1.97-1.02-.83-2.24-.53-3.17.74-2.63-2.07-5.27-4.13-7.94-6.23.12-.19.3-.42.42-.68.44-.91.17-1.95-.68-2.56-.56-.4-1.15-.77-1.73-1.14-1.59-1.04-2.57-.83-3.58.76-2.89-1.53-5.78-3.06-8.7-4.61.09-.28.22-.6.28-.93.14-.79-.23-1.67-.94-2.02-.95-.47-1.93-.9-2.93-1.23-1.12-.37-1.98.2-2.6,1.59-3.07-.99-6.14-1.99-9.26-3,.06-.21.15-.45.21-.71.25-.97-.34-2.03-1.35-2.33-.95-.28-1.91-.51-2.88-.69-.98-.19-1.93.45-2.23,1.43-.08.28-.12.57-.17.84-3.19-.45-6.36-.89-9.58-1.34,0-.16,0-.35,0-.54,0-1.15-.64-1.91-1.77-2.1-.17-.03-.34-.08-.5-.11h-2.97c-.97.5-1.51,1.25-1.35,2.41-3.37.11-6.68.22-10.03.32.34-1.31-.29-2.15-1.4-2.74h-1.19c-.61.1-1.21.22-1.82.29-1.74.2-2.48,1.34-1.94,3.02.02.07.02.14.03.21-3.15.66-6.28,1.32-9.45,1.98-.03-.25-.04-.55-.12-.83-.31-1.1-1.43-1.7-2.58-1.38-.64.17-1.27.39-1.91.58-1.9.56-2.41,1.71-1.54,3.48-3,1.19-5.99,2.38-8.99,3.57-.42-1.51-1.12-2.3-2.25-1.97-1.31.39-2.61,1.05-3.71,1.87-.87.65-.63,1.85.26,2.93-3.04,1.88-6.07,3.77-9.17,5.69-.05-.1-.12-.27-.21-.43-.61-1.16-1.94-1.51-3.03-.75-.73.51-1.44,1.04-2.14,1.6-.98.79-1.03,2.16-.14,3.08.13.14.29.25.42.37-2.47,2.23-4.93,4.44-7.4,6.66-.16-.17-.33-.37-.53-.56-.79-.75-1.89-.82-2.68-.08-.72.68-1.4,1.4-2.02,2.17-.88,1.08-.56,2.22.78,3.21-2.02,2.58-4.05,5.16-6.07,7.75-1.55-1.05-2.56-.84-3.62.77-.31.48-.62.95-.92,1.43-.83,1.3-.59,2.39.69,3.22.08.05.15.11.21.15-1.51,2.83-3.01,5.63-4.5,8.43-1.79-.77-2.66-.43-3.45,1.37-.2.45-.39.91-.58,1.36-.74,1.76-.38,2.66,1.4,3.39-1.02,3.1-2.03,6.21-3.05,9.31-1.98-.34-2.65.13-3.11,2.13-.14.6-.3,1.2-.41,1.81-.24,1.32.45,2.26,1.78,2.49.09.02.18.05.23.06-.46,3.26-.92,6.47-1.37,9.63-.56.15-1.15.22-1.66.46-.73.36-.91,1.12-1.05,1.86v3.12c.51.9,1.24,1.43,2.31,1.36.11,3.32.22,6.59.34,9.94-1.27-.21-2.13.35-2.65,1.49v1.19c.09.51.2,1.01.27,1.52.29,2.11,1.09,2.67,3.16,2.21.65,3.12,1.3,6.25,1.92,9.22-.58.32-1.19.55-1.64.95-.56.49-.62,1.21-.41,1.93.22.73.44,1.47.68,2.19.5,1.56,1.6,2.04,3.12,1.39.06-.03.13-.04.17-.05,1.21,3.05,2.41,6.07,3.63,9.15-.14.07-.33.17-.51.27-.96.54-1.34,1.6-.89,2.61.38.86.8,1.7,1.26,2.52.54.95,1.64,1.26,2.65.8.17-.08.34-.18.48-.25,1.82,2.92,3.62,5.81,5.42,8.7-1.25.8-1.8,1.61-1.3,2.54.64,1.19,1.5,2.32,2.47,3.26.76.73,1.72.4,2.77-.59,2.18,2.43,4.36,4.85,6.57,7.31-.73.62-1.23,1.41-.84,2.47.13.35.39.68.65.97.4.44.86.82,1.29,1.23,1.41,1.34,2.48,1.3,3.75-.13,2.54,2,5.09,4,7.68,6.03-.06.11-.14.27-.23.44-.54,1.01-.3,2.08.65,2.74.59.41,1.19.8,1.8,1.18,1.44.92,2.42.71,3.4-.7,2.8,1.49,5.6,2.99,8.46,4.51-.39.7-.51,1.46-.07,2.22.53.9,3.72,2.31,4.67,1.91.64-.27,1.13-.89,1.78-1.42,2.86.94,5.95,1.95,9.04,2.96-.21,1.92.26,2.56,2.18,2.97.48.1.96.22,1.44.33,1.61.37,2.49-.16,2.94-1.78,3.21.46,6.42.92,9.65,1.38.02.33.01.68.08,1.01.18.89.96,1.47,2.02,1.56.51.04,1.02.11,1.53.16h1.49c.9-.53,1.69-1.14,1.54-2.36,3.24-.11,6.41-.21,9.62-.31.06.25.1.52.19.77.27.78,1.03,1.35,1.89,1.3,1.01-.06,2.03-.16,3.02-.36,1.1-.21,1.54-.97,1.61-2.5,3.17-.66,6.35-1.33,9.32-1.95.57.55.99,1.15,1.57,1.47.91.51,4.39-.53,4.87-1.46.3-.59.31-1.33.46-2.08,2.92-1.18,6-2.42,9.09-3.67.98,1.63,1.81,1.87,3.54,1,.38-.19.75-.39,1.12-.58,1.78-.9,2.07-1.67,1.33-3.49,2.67-1.67,5.35-3.35,8.16-5.11.04.07.1.23.22.36.77.84,1.87.96,2.8.3.56-.4,1.11-.83,1.66-1.25,1.36-1.04,1.53-1.99.61-3.42,2.3-2.06,4.6-4.11,7.04-6.3.13.18.24.44.44.6.77.63,1.96.57,2.71-.15.5-.48.95-1,1.42-1.51,1.29-1.4,1.27-2.38-.1-3.67,2.02-2.55,4.04-5.1,6.09-7.69.15.09.33.21.52.31.96.53,2,.36,2.65-.51.57-.77,1.11-1.58,1.58-2.42.61-1.07.24-2.02-1.06-2.97,1.59-2.96,3.17-5.91,4.76-8.87,1.8.84,2.7.48,3.5-1.4.17-.41.36-.82.52-1.23.74-1.85.36-2.76-1.43-3.45,1.03-3.19,2.06-6.37,3.09-9.59.14.02.31.03.48.05,1.09.17,2.04-.42,2.33-1.48.22-.81.42-1.63.58-2.45.27-1.37-.27-2.13-1.87-2.71.44-3.12.87-6.24,1.32-9.43.08,0,.22-.02.36-.02,1.46,0,2.21-.71,2.31-2.2.02-.26.09-.52.14-.79v-2.23c-.55-.92-1.27-1.57-2.45-1.39ZM595.59,273.83c6.38,6.62,11.59,14.38,15.29,22.94l-53.09,21.73c-.11-.23-.21-.46-.33-.69-.66-1.26-1.46-2.42-2.35-3.5l40.48-40.48ZM593.52,271.76l-40.41,40.41c-.23-.21-.45-.43-.68-.62-1.01-.85-2.13-1.57-3.3-2.21l22.05-52.6c8.33,3.68,15.87,8.79,22.34,15.02ZM541.46,250.2c9.53.18,18.64,2.08,27.03,5.42l-21.99,52.47c-.36-.14-.72-.28-1.09-.4-1.26-.4-2.59-.64-3.95-.79v-56.7ZM538.54,250.2v56.56c-.35.02-.7.02-1.04.05-1.39.11-2.72.39-4.02.76l-21.36-52.2c8.22-3.19,17.12-5,26.42-5.17ZM509.42,256.47l21.32,52.09c-.3.14-.6.27-.89.41-1.33.68-2.56,1.51-3.71,2.45l-39.66-39.66c6.62-6.38,14.38-11.59,22.94-15.29ZM484.41,273.83l39.6,39.6c-.15.16-.3.31-.44.48-1.02,1.18-1.89,2.48-2.63,3.88l-51.55-21.61c3.68-8.33,8.79-15.87,15.02-22.34ZM468.27,298.86l51.5,21.59c-.04.1-.08.21-.12.31-.52,1.54-.86,3.15-1,4.82,0,.1,0,.2-.02.31h-55.78c.18-9.53,2.08-18.64,5.42-27.03ZM462.85,328.81h55.78s0,.05,0,.07c.12,1.62.41,3.19.88,4.68.06.18.13.35.19.52l-51.68,21.15c-3.19-8.22-5-17.12-5.17-26.42ZM484.41,380.87c-6.38-6.62-11.59-14.38-15.29-22.94l51.75-21.18c.7,1.37,1.53,2.67,2.51,3.84.2.24.41.46.62.68l-39.59,39.59ZM486.48,382.93l39.66-39.66c1.11.91,2.29,1.72,3.57,2.38.28.15.57.27.86.41l-21.75,51.89c-8.32-3.68-15.87-8.79-22.34-15.02ZM538.54,404.5c-9.53-.18-18.64-2.08-27.03-5.42l21.8-52.01c1.35.4,2.74.7,4.19.82.34.03.69.04,1.04.05v56.56ZM538.54,337.17c-.35-.02-.69-.06-1.03-.12-.98-.17-1.92-.48-2.78-.92-.32-.16-.63-.34-.92-.53-.82-.54-1.56-1.19-2.19-1.94-.27-.32-.51-.66-.73-1.01-.52-.81-.93-1.71-1.19-2.67-.11-.38-.19-.78-.25-1.18-.07-.48-.12-.96-.12-1.46s.05-.98.12-1.46c.06-.43.15-.86.27-1.27.27-.95.69-1.85,1.22-2.66.21-.32.44-.64.69-.93.63-.75,1.37-1.4,2.19-1.94.32-.21.66-.4,1-.57.87-.43,1.8-.73,2.79-.89.31-.05.62-.09.94-.11.21-.01.43-.03.64-.03.78,0,1.54.1,2.28.27.3.07.59.15.87.25.94.32,1.81.77,2.6,1.34.19.14.38.28.57.43.75.63,1.4,1.37,1.94,2.19.13.2.25.4.37.6.47.84.82,1.76,1.02,2.74.04.19.06.38.09.58.07.48.12.96.12,1.46s-.05.98-.12,1.46c-.03.22-.07.44-.11.65-.21.97-.57,1.89-1.04,2.73-.1.18-.21.36-.33.54-.54.82-1.19,1.56-1.94,2.19-.2.17-.42.33-.63.48-.79.56-1.67,1.01-2.61,1.32-.26.09-.53.16-.79.22-.73.17-1.49.27-2.28.27-.22,0-.43-.02-.64-.03ZM541.46,404.5v-56.7c1.43-.16,2.82-.42,4.15-.86.25-.08.48-.18.73-.27l21.55,52.65c-8.22,3.19-17.11,5-26.42,5.17ZM570.58,398.23l-21.6-52.78c1.3-.71,2.54-1.52,3.65-2.48.16-.14.32-.3.48-.44l40.41,40.41c-6.62,6.38-14.38,11.59-22.94,15.29ZM595.59,380.87l-40.48-40.48c.99-1.21,1.85-2.51,2.55-3.92.02-.04.03-.08.05-.11l52.89,22.17c-3.68,8.33-8.79,15.87-15.02,22.34ZM611.73,355.84l-52.91-22.18s0-.01,0-.02c.49-1.52.79-3.11.91-4.76,0-.02,0-.05,0-.07h57.41c-.18,9.53-2.08,18.64-5.42,27.03ZM559.74,325.89c0-.1,0-.2-.02-.31-.13-1.51-.45-2.96-.89-4.36l53.14-21.75c3.19,8.22,5,17.11,5.17,26.42h-57.41Z"/><path class="cls-3" d="M207.93,584.22c-1.39-.67-2.75-1.16-4.07-1.48-1.36-.3-2.67-.44-3.92-.44-.05,0-.1,0-.15,0-2.43,0-4.75.59-6.81,1.46-2.11.9-4.02,2.14-5.8,3.55,0,0,0,0,0,0,3.57-2.82,6.61-6.32,7.83-11.28.53-2.4.68-5.24-.03-8.19-.34-1.5-.84-3.06-1.61-4.6-.38-.78-.8-1.57-1.28-2.37-.48-.79-1.05-1.55-1.65-2.33-.44,0-.88.01-1.3.03-.53.02-1.04.05-1.55.11-.93.12-1.82.27-2.67.45-1.69.34-3.24.9-4.63,1.56-.6.27-1.16.57-1.69.89-.02.01-.05.03-.07.04-1.93,1.16-3.5,2.61-4.71,4.1-3.12,3.99-4.01,8.53-4.03,13.02,0-3.02-.39-6.05-1.57-8.94-.58-1.41-1.33-2.79-2.35-4.11-1-1.25-2.26-2.48-3.76-3.54-.82-.57-1.7-1.1-2.67-1.55-1.39-.68-2.93-1.25-4.62-1.6-.85-.19-1.73-.35-2.66-.47-.19-.02-.38-.03-.56-.05-.74-.07-1.5-.1-2.29-.11-.61.78-1.18,1.53-1.67,2.32-.49.8-.92,1.58-1.3,2.36-.78,1.53-1.3,3.09-1.65,4.59-.73,2.94-.61,5.78-.1,8.18,1.17,4.97,4.19,8.5,7.73,11.35,0,0,0,0,0,0-1.77-1.42-3.66-2.68-5.77-3.6-2.09-.91-4.45-1.52-6.93-1.52h-.02s-.06,0-.09,0c-.3,0-.62.03-.93.05-.94.05-1.91.15-2.9.36-1.32.31-2.68.78-4.08,1.44-.83.4-1.66.88-2.49,1.43-1.93,1.27-3.83,2.95-5.58,5.11h0c1.79,7.77,6.28,12.39,10.71,14.55.39.19.77.35,1.16.5,2.25.88,4.5,1.24,6.73,1.24,1.38,0,2.75-.14,4.11-.37.21-.03.41-.07.62-.11-1.19-7.63,1.67-15.39,7.55-20.41,1.51-1.29,3.21-2.4,5.09-3.27,1.49-.69,3.02-1.2,4.56-1.55,1.24-.28,2.49-.44,3.74-.51.36-.02.72-.03,1.08-.03,2.46,0,4.88.42,7.18,1.2.52.18,1.03.37,1.54.58,3.01,1.27,5.75,3.2,7.97,5.7,1.41,1.59,2.62,3.41,3.56,5.43,4.14,8.91,1.89,19.14-4.85,25.56-1.33,1.27-2.84,2.39-4.51,3.32,1.18,2.29,2.67,4.46,4.61,6.27,1.2,1.12,2.56,2.1,4.15,2.88,2.25,1.11,4.99,1.81,8.08,1.81s6.43-.69,9.99-2.35h0c.86-3.85.81-7.36.15-10.35-.34-1.51-.81-2.87-1.38-4.1-.61-1.25-1.32-2.37-2.1-3.35-1.53-1.96-3.47-3.45-5.48-4.54-2.02-1.09-4.18-1.81-6.39-2.32h0c1.96.45,3.95.75,5.97.75,2.56,0,5.14-.47,7.72-1.68,4.46-2.13,8.98-6.7,10.84-14.46h0c-2.47-3.1-5.26-5.25-8.01-6.61Z"/><path class="cls-3" d="M148.64,612.19c-.89-1.93-1.48-3.91-1.8-5.91-.2.05-.4.09-.6.15-1.64.45-3.23,1.05-4.76,1.85-1.47.78-2.89,1.77-4.15,3-.48.47-.94.96-1.37,1.5-.79.98-1.5,2.09-2.13,3.33-.58,1.23-1.06,2.59-1.41,4.09-.68,2.98-.76,6.49.06,10.35h0c3.62,1.73,7.06,2.44,10.15,2.44.89,0,1.74-.06,2.56-.17,1.99-.26,3.79-.82,5.36-1.57,1.43-.68,2.67-1.54,3.79-2.5,1.96-1.69,3.49-3.74,4.71-5.93-4.43-2.17-8.18-5.8-10.42-10.62Z"/><path class="cls-3" d="M179.05,622.65c-.25.13-.51.26-.77.38-1.31.61-2.64,1.07-3.99,1.41-1.05.26-2.1.45-3.15.56-.6.06-1.19.09-1.79.1-.15,0-.31.01-.46.01-2.92,0-5.79-.59-8.46-1.68-.43-.18-.86-.37-1.28-.57-1.52,3.63-2.36,7.63-1.41,11.89.53,2.51,1.7,4.95,3.6,7.41.96,1.17,2.11,2.33,3.46,3.45.17.14.36.27.54.4,1.22.9,2.58,1.76,4.11,2.56.95-.49,1.83-.99,2.66-1.52.72-.45,1.39-.92,2.02-1.4.35-.29.69-.57,1.01-.86.1-.09.2-.19.3-.28.81-.75,1.54-1.5,2.18-2.27,1.38-1.75,2.37-3.49,3.03-5.26.26-.7.48-1.41.63-2.12,1.05-4.51.08-8.75-1.59-12.56-.22.12-.44.24-.67.36Z"/><path class="cls-3" d="M168.67,617.1c.07,0,.15,0,.22,0,.23,0,.46-.03.69-.04,1.62-.08,3.19-.43,4.71-1.05.21-.08.42-.15.62-.25,1.27-.59,2.4-1.35,3.4-2.23,4.65-4.08,6.29-10.9,3.55-16.79-1-2.16-2.51-3.98-4.35-5.37-.67-.5-1.37-.94-2.12-1.33-1.99-1.02-4.22-1.59-6.53-1.59-.4,0-.8.03-1.2.07-.88.07-1.75.24-2.61.48-.75.21-1.49.46-2.21.8-3.2,1.49-5.59,4.02-6.96,7.01-1.69,3.68-1.83,8.05,0,12.01.64,1.39,1.5,2.63,2.52,3.72,2.62,2.81,6.32,4.51,10.26,4.57Z"/><path class="cls-3" d="M919.72,622.59c-.29.15-.58.3-.88.44-2.66,1.24-5.44,1.9-8.19,2.05-.4.02-.8.03-1.19.03-.21,0-.41-.02-.61-.02-1.06-.03-2.1-.13-3.14-.31-1.66-.28-3.27-.75-4.82-1.39-.39-.16-.78-.34-1.17-.52-1.52,3.63-2.36,7.63-1.41,11.89.21.98.51,1.95.92,2.92.64,1.5,1.52,2.99,2.68,4.49.74.9,1.59,1.79,2.55,2.66.11.1.23.2.35.3.18.16.36.32.56.48.75.59,1.58,1.16,2.46,1.71.69.43,1.42.85,2.19,1.26,1.76-.9,3.33-1.88,4.68-2.92.01,0,.02-.02.03-.02,1.35-1.1,2.5-2.24,3.46-3.39,1.92-2.44,3.11-4.87,3.66-7.38,1.05-4.51.08-8.75-1.59-12.56-.18.1-.36.2-.55.3Z"/><path class="cls-3" d="M950.85,585.58c-.78-.52-1.57-.98-2.35-1.37-1.39-.67-2.75-1.16-4.07-1.48-1.05-.23-2.06-.36-3.04-.41-.3-.02-.59-.03-.88-.03-.05,0-.1,0-.15,0-2.43,0-4.75.59-6.81,1.46-2.11.9-4.02,2.14-5.8,3.55,0,0,0,0,0,0,3.57-2.82,6.61-6.32,7.83-11.28.53-2.4.68-5.24-.03-8.19-.34-1.5-.84-3.06-1.61-4.6-.38-.78-.8-1.57-1.28-2.37-.48-.79-1.05-1.55-1.65-2.33-.9,0-1.75.03-2.59.11-.09,0-.18.01-.27.02-.93.12-1.82.27-2.67.45-1.69.34-3.24.9-4.63,1.56-1.08.49-2.06,1.08-2.96,1.72-1.4,1-2.57,2.15-3.52,3.32-1.11,1.42-1.93,2.92-2.54,4.45-1.09,2.77-1.48,5.68-1.49,8.57.01-4.49-.83-9.04-3.92-13.05-1.26-1.57-2.91-3.1-4.97-4.31-.02,0-.03-.02-.05-.03-.45-.26-.92-.52-1.41-.75-1.39-.68-2.93-1.25-4.62-1.6-.85-.19-1.73-.35-2.66-.47-.61-.07-1.23-.11-1.87-.13-.33-.01-.65-.02-.99-.03-.61.78-1.18,1.53-1.67,2.32-.49.8-.92,1.58-1.3,2.36-.78,1.53-1.3,3.09-1.65,4.59-.73,2.94-.61,5.78-.1,8.18,1.17,4.97,4.19,8.5,7.73,11.35,0,0,0,0,0,0-1.77-1.42-3.66-2.68-5.77-3.6-2.09-.91-4.45-1.52-6.93-1.52h-.02s-.06,0-.09,0c-1.23,0-2.51.13-3.83.41-1.32.31-2.68.78-4.08,1.44-2.76,1.33-5.57,3.46-8.07,6.53h0c1.79,7.77,6.28,12.39,10.71,14.55,2.63,1.26,5.28,1.74,7.89,1.74,1.59,0,3.17-.19,4.73-.48-1.15-7.35,1.47-14.83,6.93-19.86,1.66-1.52,3.57-2.82,5.72-3.82.78-.36,1.57-.67,2.37-.94.5-.17,1-.31,1.5-.44,1.83-.47,3.68-.71,5.52-.71.94,0,1.87.07,2.8.19,1.25.16,2.48.42,3.69.79,3.58,1.09,6.87,3.06,9.53,5.8,1.7,1.75,3.16,3.81,4.24,6.15,4.96,10.67.76,23.24-9.36,28.88,1.3,2.52,2.97,4.89,5.21,6.79,1.05.9,2.22,1.7,3.55,2.35,1.63.8,3.52,1.39,5.62,1.65.8.1,1.62.16,2.47.16,3.05,0,6.43-.69,9.99-2.35h0c.86-3.85.81-7.36.15-10.35-.34-1.51-.81-2.87-1.38-4.1-.61-1.25-1.32-2.37-2.1-3.35-.4-.52-.84-1-1.29-1.45-1.27-1.27-2.71-2.29-4.19-3.09-1.5-.81-3.07-1.41-4.68-1.87-.57-.16-1.14-.31-1.71-.45h0c.58.13,1.16.25,1.75.35,1.39.25,2.81.4,4.23.4,2.18,0,4.39-.35,6.59-1.2.38-.15.75-.3,1.13-.48,4.46-2.13,8.98-6.7,10.84-14.46h0c-1.77-2.21-3.7-3.94-5.65-5.24Z"/><path class="cls-3" d="M895.73,620.39c-2.71-2.11-4.98-4.87-6.53-8.19-.89-1.93-1.48-3.91-1.8-5.91-1.84.47-3.65,1.1-5.35,2-2.03,1.07-3.98,2.54-5.52,4.49-.79.98-1.5,2.09-2.13,3.33-.58,1.23-1.06,2.59-1.41,4.09-.68,2.98-.76,6.49.06,10.35h0c3.62,1.73,7.06,2.44,10.15,2.44s5.71-.68,7.92-1.74c1.75-.83,3.23-1.91,4.52-3.15,1.62-1.56,2.91-3.37,3.98-5.28-1.37-.67-2.68-1.48-3.89-2.43Z"/><path class="cls-3" d="M901.6,614.75c1.26.83,2.65,1.45,4.12,1.85,1.2.33,2.46.51,3.74.51.32,0,.64-.03.96-.05.31-.02.61-.05.92-.09,1.42-.19,2.81-.58,4.14-1.2,2.98-1.38,5.24-3.68,6.65-6.39,1.4-2.69,1.93-5.8,1.44-8.87-.2-1.27-.57-2.53-1.14-3.75-1.54-3.32-4.28-5.85-7.56-7.2-.81-.34-1.66-.6-2.53-.78-.95-.2-1.92-.3-2.9-.3-1.67,0-3.31.3-4.88.88-.38.14-.77.28-1.14.46-.32.15-.62.32-.93.49-3.01,1.67-5.29,4.32-6.49,7.58-.42,1.14-.67,2.32-.79,3.5-.14,1.37-.08,2.75.18,4.1.22,1.14.56,2.27,1.07,3.35,1.14,2.46,2.95,4.49,5.14,5.93Z"/><polygon class="cls-6" points="718.88 681.35 743.71 702.28 734.12 744.09 760.66 750.17 770.28 708.2 803.14 694.06 815.41 640.5 788.88 634.42 775.98 690.71 746.22 683.9 759.12 627.61 732.58 621.53 712.36 638.9 727.79 642.43 718.88 681.35"/><polygon class="cls-6" points="691.14 713.8 637.79 708.36 639.99 686.69 659.53 688.68 679.42 672.47 652.01 669.67 691.97 637.25 694.14 615.91 636.36 610.03 618.43 629.76 664.88 634.49 663.79 645.16 612.62 686.72 608.53 726.94 673.2 733.53 691.14 713.8"/><path class="cls-6" d="M424.9,606.46l-37.2,33.45,7.45,76.7,42.9,16.92,41.06-31.54-7.45-76.7-46.75-18.83ZM421.89,710.37l-7.37-75.87,30.38-2.95,7.37,75.87-30.38,2.95Z"/><path class="cls-6" d="M278.16,676.93l17.84,78.52,50.52-11.48,27.13-31.04-16.27-71.6-30.34-15.1-57.28,13.02-9.73,22.23c.12.63.25,1.26.37,1.89l37.13-8.44-19.37,22ZM330.83,647.37l16.89,74.34-29.93,6.8-16.89-74.34,29.93-6.8Z"/><path class="cls-6" d="M500.37,630.48l-.2,77.05,40.19,21.24,44.8-27.45.2-77.05-44.65-23.38-40.33,29.59ZM557.92,704.05l-30.52-.08.2-76.23,30.52.08-.2,76.23Z"/><rect class="cls-2" x="418.13" y="632.84" width="30.53" height="76.23" transform="translate(-62.81 45.03) rotate(-5.55)"/><path class="cls-2" d="M869.31,642.58c-89.2-33.18-206.21-51.46-329.47-51.46h0c-123.26,0-240.27,18.28-329.47,51.46-5.87,2.18-11.59,4.42-17.18,6.72v175.12c.09-.09.19-.18.29-.27.46-.43.94-.88,1.46-1.35,0,0,.02-.02.03-.02.5-.45,1.04-.92,1.6-1.4.02-.02.05-.04.07-.06.55-.47,1.13-.96,1.74-1.45.03-.03.07-.05.1-.08.6-.49,1.24-.99,1.9-1.51,0,0,0,0,0,0,.04-.03.09-.07.13-.1.66-.51,1.35-1.03,2.07-1.56.04-.03.09-.07.14-.1.73-.53,1.48-1.08,2.26-1.63.04-.03.09-.06.13-.09.8-.56,1.63-1.13,2.49-1.71.02-.02.05-.03.07-.05.89-.59,1.8-1.2,2.76-1.81,2.71-1.74,5.6-3.47,8.62-5.18,1.31-.74,2.64-1.48,4-2.22.92-.5,1.84-1,2.79-1.49.4-.21.81-.42,1.21-.62,16.48-8.52,36.52-16.57,59.02-23.66,69.94-22.06,160.08-34.2,253.81-34.2s183.87,12.15,253.81,34.2c22.65,7.14,42.81,15.26,59.35,23.84,1.36.7,2.69,1.41,4,2.12.32.18.65.35.97.52,1.02.56,2.03,1.13,3.03,1.69,2.9,1.65,5.66,3.32,8.28,5,.95.61,1.87,1.21,2.76,1.81.02.02.05.03.07.05.86.58,1.69,1.15,2.49,1.71.04.03.08.06.12.09.79.55,1.54,1.1,2.27,1.63.04.03.09.07.13.1.72.53,1.41,1.05,2.07,1.56.04.03.09.07.13.1.66.51,1.29,1.02,1.9,1.51.03.03.06.05.09.08.61.5,1.19.98,1.75,1.46.02.02.04.04.06.05.56.48,1.09.95,1.6,1.4,0,0,.02.02.02.02.51.46,1,.91,1.46,1.35.1.09.19.18.29.27v-175.12c-5.59-2.3-11.32-4.54-17.18-6.72ZM424.9,606.46l46.75,18.83,7.45,76.7-41.06,31.54-42.9-16.92-7.45-76.7,37.2-33.45ZM500.37,630.48l40.33-29.59,44.65,23.38-.2,77.05-44.8,27.45-40.19-21.24.2-77.05ZM618.43,629.76l17.93-19.73,57.78,5.89-2.17,21.34-39.96,32.42,27.41,2.79-19.9,16.22-19.53-1.99-2.21,21.67,53.35,5.44-17.93,19.73-64.68-6.59,4.1-40.22,51.17-41.56,1.09-10.67-46.46-4.73ZM770.28,708.2l-9.62,41.98-26.54-6.08,9.58-41.82-24.83-20.92,8.92-38.92-15.44-3.54,20.23-17.37,26.54,6.08-12.9,56.29,29.75,6.82,12.9-56.29,26.54,6.08-12.27,53.56-32.86,14.14ZM259.07,663.67l.96-2.19,9.73-22.23,57.28-13.02,30.34,15.1,16.27,71.6-27.13,31.04-50.52,11.48-17.84-78.52,19.37-22-37.13,8.44-1.33.3Z"/><rect class="cls-2" x="504.65" y="650.63" width="76.23" height="30.52" transform="translate(-124.54 1206.93) rotate(-89.85)"/><rect class="cls-2" x="308.97" y="649.82" width="30.69" height="76.23" transform="translate(-144.36 88.96) rotate(-12.8)"/></svg>