<?xml version="1.0" encoding="UTF-8"?><svg id="Layer_1" xmlns="http://www.w3.org/2000/svg" viewBox="0 0 1080 1080"><defs><style>.cls-1{fill:#231f20;stroke-width:0px;}</style></defs><path class="cls-1" d="M252.56,476.43l44.49-11.08,23.43-27.95-15.7-63.05-27.11-12.81-50.44,12.56-9.01,21.8,33.86-8.43-16.73,19.81,17.22,69.14ZM281.4,380.18l16.3,65.46-26.35,6.56-16.3-65.46,26.35-6.56Z"/><path class="cls-1" d="M374.67,456.14l38.63-31.59-9.04-67.58-41.95-15.16-31.83,30.77,9.04,67.58,35.14,15.98ZM380.82,363.34l8.94,66.86-26.77,3.58-8.94-66.86,26.77-3.58Z"/><polygon class="cls-1" points="429.48 444.81 486.9 441.36 499.76 421.58 452.39 424.42 451.24 405.18 468.58 404.14 483.65 387.15 459.31 388.61 489.6 354.62 488.46 335.67 437.16 338.75 424.31 358.53 465.55 356.06 466.12 365.53 427.34 409.1 429.48 444.81"/><polygon class="cls-1" points="512.95 354.21 526.97 354.15 527.28 440.59 551.37 440.5 550.99 335.09 526.9 335.18 512.95 354.21"/><polygon class="cls-1" points="644.29 448.61 662.82 425.7 649.11 425.02 652.59 354.59 623.43 332.38 601.55 352.06 582.02 330.33 563.49 353.25 577.34 353.93 573.07 440.26 597.13 441.45 601.4 355.12 628.38 356.46 624.89 426.89 644.29 448.61"/><polygon class="cls-1" points="740.22 460.25 760.61 438.98 746.87 437.13 751.56 402.26 738.21 393.1 753.99 384.17 758.39 351.47 734.52 348.26 729.01 389.21 702.24 385.61 707.75 344.66 683.87 341.44 667.45 358.39 681.34 360.26 669.81 445.92 693.69 449.13 700.1 401.52 726.86 405.13 722.58 436.96 740.22 460.25"/><polygon class="cls-1" points="788.75 357.09 770.53 372.09 784.12 375.5 775.51 409.77 797.09 428.74 787.85 465.55 811.21 471.42 820.49 434.46 849.83 422.56 861.67 375.41 838.31 369.54 825.86 419.1 799.66 412.52 812.11 362.96 788.75 357.09"/><path class="cls-1" d="M934.6,574.54c-5.15-1.86-11.78-4.18-19.56-6.72-3.84-1.25-7.72-2.48-11.65-3.69-.26-.08-.52-.16-.79-.25-.34-.11-.68-.21-1.03-.32-.82-.25-1.65-.5-2.47-.74-.06-.02-.13-.04-.19-.06-1.47-.44-2.94-.89-4.42-1.32v157.02l-13.53-12.97-.13-.12-.13-.12c-.41-.39-.85-.79-1.28-1.18l-.03-.03h-.01c-.46-.42-.94-.85-1.45-1.28l-.06-.05c-.51-.43-1.04-.88-1.6-1.33l-.04-.03h0s-.03-.04-.03-.04h0c-.56-.46-1.15-.93-1.76-1.4l-.04-.03h0s-.08-.06-.08-.06c-.62-.48-1.26-.96-1.96-1.48l-.1-.07c-.68-.5-1.39-1.01-2.14-1.54l-.1-.07c-.76-.53-1.54-1.07-2.35-1.61l-.05-.03-.02-.02c-.86-.58-1.74-1.16-2.61-1.71-1.28-.82-2.61-1.64-3.97-2.46v22.37c21.21,7.26,39.55,15.15,54.01,23.29,9.08,5.11,15.39,9.64,19.59,13.18-3.93-31.83-7.86-63.66-11.78-95.5l11.78-79.63Z"/><path class="cls-1" d="M212.1,694.98l-.08.05c-.81.55-1.6,1.09-2.34,1.61l-.13.09c-.74.52-1.44,1.03-2.11,1.52l-.14.1c-.67.5-1.31.98-1.93,1.46l-.12.09c-.61.47-1.2.94-1.74,1.38l-.1.08c-.56.45-1.09.9-1.62,1.35l-.05.04c-.5.43-.98.85-1.46,1.28-.46.41-.9.82-1.3,1.2l-.15.14-.11.11-13.53,12.97v-156.92c-1.37.4-2.73.82-4.08,1.22-.06.02-.13.04-.19.06-.82.25-1.65.49-2.47.74-.34.1-.68.21-1.03.32-.26.08-.52.16-.79.25-3.93,1.21-7.81,2.44-11.65,3.69-6.68,2.18-13.2,4.42-19.56,6.72,4.38,26.24,8.76,52.49,13.14,78.73-4.38,32.13-8.76,64.26-13.14,96.39,1.74-1.43,4.46-3.6,7.97-6,3.24-2.21,7.09-4.63,11.63-7.18,14.46-8.14,32.8-16.04,54.01-23.29v-22.57c-1.48.89-2.92,1.77-4.3,2.66-.87.56-1.75,1.13-2.6,1.71Z"/><rect class="cls-1" x="418.13" y="508.13" width="30.53" height="76.23" transform="translate(-50.76 44.44) rotate(-5.55)"/><path class="cls-1" d="M869.31,517.87c-89.2-33.18-206.21-51.46-329.47-51.46h0c-123.26,0-240.27,18.28-329.47,51.46-5.87,2.18-11.59,4.42-17.18,6.72v175.12c.09-.09.19-.18.29-.27.46-.43.94-.88,1.46-1.35,0,0,.02-.02.03-.02.5-.45,1.04-.92,1.6-1.4.02-.02.05-.04.07-.06.55-.47,1.13-.96,1.74-1.45.03-.03.07-.05.1-.08.6-.49,1.24-.99,1.9-1.51,0,0,0,0,0,0,.04-.03.09-.07.13-.1.66-.51,1.35-1.03,2.07-1.56.04-.03.09-.07.14-.1.73-.53,1.48-1.08,2.26-1.63.04-.03.09-.06.13-.09.8-.56,1.63-1.13,2.49-1.71.02-.02.05-.03.07-.05.89-.59,1.8-1.2,2.76-1.81,2.71-1.74,5.6-3.47,8.62-5.18,1.31-.74,2.64-1.48,4-2.22.92-.5,1.84-1,2.79-1.49.4-.21.81-.42,1.21-.62,16.48-8.52,36.52-16.57,59.02-23.66,69.94-22.06,160.08-34.2,253.81-34.2s183.87,12.15,253.81,34.2c22.65,7.14,42.81,15.26,59.35,23.84,1.36.7,2.69,1.41,4,2.12.32.18.65.35.97.52,1.02.56,2.03,1.13,3.03,1.69,2.9,1.65,5.66,3.32,8.28,5,.95.61,1.87,1.21,2.76,1.81.02.02.05.03.07.05.86.58,1.69,1.15,2.49,1.71.04.03.08.06.12.09.79.55,1.54,1.1,2.27,1.63.04.03.09.07.13.1.72.53,1.41,1.05,2.07,1.56.04.03.09.07.13.1.66.51,1.29,1.02,1.9,1.51.03.03.06.05.09.08.61.5,1.19.98,1.75,1.46.02.02.04.04.06.05.56.48,1.09.95,1.6,1.4,0,0,.02.02.02.02.51.46,1,.91,1.46,1.35.1.09.19.18.29.27v-175.12c-5.59-2.3-11.32-4.54-17.18-6.72ZM424.9,481.76l46.75,18.83,7.45,76.7-41.06,31.54-42.9-16.92-7.45-76.7,37.2-33.45ZM500.37,505.77l40.33-29.59,44.65,23.38-.2,77.05-44.8,27.45-40.19-21.24.2-77.05ZM618.43,505.06l17.93-19.73,57.78,5.89-2.17,21.34-39.96,32.42,27.41,2.79-19.9,16.22-19.53-1.99-2.21,21.67,53.35,5.44-17.93,19.73-64.68-6.59,4.1-40.22,51.17-41.56,1.09-10.67-46.46-4.73ZM770.28,583.49l-9.62,41.98-26.54-6.08,9.58-41.82-24.83-20.92,8.92-38.92-15.44-3.54,20.23-17.37,26.54,6.08-12.9,56.29,29.75,6.82,12.9-56.29,26.54,6.08-12.27,53.56-32.86,14.14ZM259.07,538.96l.96-2.19,9.73-22.23,57.28-13.02,30.34,15.1,16.27,71.6-27.13,31.04-50.52,11.48-17.84-78.52,19.37-22-37.13,8.44-1.33.3Z"/><rect class="cls-1" x="504.65" y="525.93" width="76.23" height="30.52" transform="translate(.17 1082.54) rotate(-89.85)"/><rect class="cls-1" x="308.97" y="525.11" width="30.69" height="76.23" transform="translate(-116.73 85.86) rotate(-12.8)"/></svg>